<?xml version="1.0" encoding="UTF-8" standalone="no"?>
<!-- Created with Inkscape (http://www.inkscape.org/) -->

<svg
   width="143"
   height="36"
   viewBox="0 0 143 36"
   version="1.1"
   id="svg8"
   inkscape:version="1.3.2 (091e20ef0f, 2023-11-25)"
   sodipodi:docname="other.svg"
   xml:space="preserve"
   xmlns:inkscape="http://www.inkscape.org/namespaces/inkscape"
   xmlns:sodipodi="http://sodipodi.sourceforge.net/DTD/sodipodi-0.dtd"
   xmlns:xlink="http://www.w3.org/1999/xlink"
   xmlns="http://www.w3.org/2000/svg"
   xmlns:svg="http://www.w3.org/2000/svg"><defs
     id="defs2"><linearGradient
       id="linearGradient8"
       inkscape:collect="always"><stop
         style="stop-color:#171717;stop-opacity:1;"
         offset="0"
         id="stop8" /><stop
         style="stop-color:#2c2b24;stop-opacity:1;"
         offset="1"
         id="stop9" /></linearGradient><linearGradient
       inkscape:collect="always"
       xlink:href="#linearGradient8"
       id="linearGradient4"
       gradientUnits="userSpaceOnUse"
       x1="481.58118"
       y1="442"
       x2="481.58118"
       y2="539"
       gradientTransform="matrix(0.25,0,0,0.33333333,-55.499991,-10.858355)" /><linearGradient
       inkscape:collect="always"
       xlink:href="#linearGradient8"
       id="linearGradient11"
       gradientUnits="userSpaceOnUse"
       gradientTransform="matrix(0.25,0,0,0.33333333,-55.499991,-10.858355)"
       x1="481.58118"
       y1="442"
       x2="481.58118"
       y2="539" /><clipPath
       clipPathUnits="userSpaceOnUse"
       id="clipPath16"><rect
         style="opacity:0.5;fill:#e6ffff;fill-opacity:1;stroke:none;stroke-width:8.9409;stroke-linecap:square;stroke-dasharray:none;stroke-opacity:1;paint-order:stroke fill markers"
         id="rect17"
         width="53.497341"
         height="72"
         x="2.5026588"
         y="116.47498" /></clipPath><clipPath
       clipPathUnits="userSpaceOnUse"
       id="clipPath17"><rect
         style="opacity:0.5;fill:#e6ffff;fill-opacity:1;stroke:none;stroke-width:12.2082;stroke-linecap:square;stroke-dasharray:none;stroke-opacity:1;paint-order:stroke fill markers"
         id="rect18"
         width="100"
         height="71.813057"
         x="56"
         y="116.56845" /></clipPath><linearGradient
       inkscape:collect="always"
       xlink:href="#linearGradient8"
       id="linearGradient22"
       gradientUnits="userSpaceOnUse"
       gradientTransform="matrix(0.25,0,0,0.33333333,-227.49999,184.40745)"
       x1="481.58118"
       y1="442"
       x2="481.58118"
       y2="539" /><clipPath
       clipPathUnits="userSpaceOnUse"
       id="clipPath18"><rect
         style="opacity:0.5;fill:#e6ffff;fill-opacity:1;stroke:none;stroke-width:8.9409;stroke-linecap:square;stroke-dasharray:none;stroke-opacity:1;paint-order:stroke fill markers"
         id="rect21"
         width="53.497341"
         height="72"
         x="-158.49734"
         y="-399.47498"
         transform="scale(-1)" /></clipPath><style
       id="current-color-scheme"
       type="text/css">.ColorScheme-Text {
        color:#363636;
      }</style><style
       id="current-color-scheme-6"
       type="text/css">.ColorScheme-Text {
        color:#363636;
      }</style></defs><sodipodi:namedview
     id="base"
     pagecolor="#4d4d4d"
     bordercolor="#666666"
     borderopacity="1.0"
     inkscape:pageopacity="0"
     inkscape:pageshadow="2"
     inkscape:zoom="1.4"
     inkscape:cx="78.214286"
     inkscape:cy="92.142857"
     inkscape:document-units="px"
     inkscape:current-layer="layer1"
     showgrid="true"
     units="px"
     inkscape:window-width="1920"
     inkscape:window-height="1010"
     inkscape:window-x="0"
     inkscape:window-y="34"
     inkscape:window-maximized="1"
     inkscape:pagecheckerboard="0"
     inkscape:snap-bbox="true"
     inkscape:bbox-nodes="true"
     inkscape:snap-nodes="true"
     inkscape:snap-bbox-edge-midpoints="true"
     inkscape:showpageshadow="2"
     inkscape:deskcolor="#d1d1d1"><inkscape:grid
       type="xygrid"
       id="grid28"
       originx="0"
       originy="0"
       spacingy="1"
       spacingx="1"
       units="px"
       visible="true" /></sodipodi:namedview><g
     id="layer1"
     transform="translate(0,-287.47498)"><g
       id="select_w"
       transform="translate(-40,153)"
       clip-path="url(#clipPath16)"><rect
         style="fill:none;fill-opacity:1;stroke:#000000;stroke-width:4;stroke-linecap:square;stroke-dasharray:none;stroke-opacity:1;paint-order:stroke fill markers"
         id="rect4"
         width="128"
         height="32"
         x="42"
         y="136.47498" /><rect
         style="fill:url(#linearGradient4);fill-opacity:1;stroke:#383735;stroke-width:2;stroke-linecap:square;stroke-dasharray:none;stroke-opacity:1;paint-order:stroke fill markers"
         id="rect2"
         width="128"
         height="32"
         x="42"
         y="136.47498" /><path
         id="path3"
         style="fill:#e6ffff;fill-opacity:1;stroke:none;stroke-width:1.03192;stroke-linecap:square;stroke-linejoin:miter;stroke-dasharray:none;stroke-opacity:1;paint-order:stroke fill markers"
         d="m 41.000001,135.47497 v 2.6764 a 19.489785,19.489785 0 0 1 2.638432,-2.6764 z m 5.024816,0 a 18.028924,18.028924 0 0 0 -5.024816,5.16216 v 3.6757 a 16.321243,16.321243 0 0 1 8.588241,-8.83786 z" /><path
         id="rect5"
         style="fill:#4f4831;fill-opacity:1;stroke:none;stroke-width:1.84136;stroke-linecap:square;stroke-dasharray:none;stroke-opacity:1;paint-order:stroke fill markers"
         d="m 50,138.47498 c -3.32399,0 -6,2.676 -6,6 v 12 2 8 h 9 2 107 c 3.324,0 6,-2.676 6,-6 v -16 -6 h -7 z m 0,1 h 111 6 v 9 12 c 0,2.77 -2.23,5 -5,5 H 55 53 45 v -7 -2 -12 c 0,-2.77 2.230012,-5 5,-5 z" /><path
         id="path7"
         style="fill:#e6ffff;fill-opacity:1;stroke:none;stroke-width:1.03192;stroke-linecap:square;stroke-linejoin:miter;stroke-dasharray:none;stroke-opacity:1;paint-order:stroke fill markers"
         d="m 171,169.47498 v -2.6764 a 19.489785,19.489785 0 0 1 -2.63844,2.6764 z m -5.02482,0 A 18.028924,18.028924 0 0 0 171,164.31282 v -3.6757 a 16.321243,16.321243 0 0 1 -8.58824,8.83786 z" /></g><g
       id="select_c"
       transform="translate(-40,153)"
       clip-path="url(#clipPath17)"><rect
         style="fill:none;fill-opacity:1;stroke:#000000;stroke-width:4;stroke-linecap:square;stroke-dasharray:none;stroke-opacity:1;paint-order:stroke fill markers"
         id="rect8"
         width="128"
         height="32"
         x="42"
         y="136.47498" /><rect
         style="fill:url(#linearGradient11);fill-opacity:1;stroke:#383735;stroke-width:2;stroke-linecap:square;stroke-dasharray:none;stroke-opacity:1;paint-order:stroke fill markers"
         id="rect9"
         width="128"
         height="32"
         x="42"
         y="136.47498" /><path
         id="path9"
         style="fill:#e6ffff;fill-opacity:1;stroke:none;stroke-width:1.03192;stroke-linecap:square;stroke-linejoin:miter;stroke-dasharray:none;stroke-opacity:1;paint-order:stroke fill markers"
         d="m 41.000001,135.47497 v 2.6764 a 19.489785,19.489785 0 0 1 2.638432,-2.6764 z m 5.024816,0 a 18.028924,18.028924 0 0 0 -5.024816,5.16216 v 3.6757 a 16.321243,16.321243 0 0 1 8.588241,-8.83786 z" /><path
         id="path10"
         style="fill:#4f4831;fill-opacity:1;stroke:none;stroke-width:1.84136;stroke-linecap:square;stroke-dasharray:none;stroke-opacity:1;paint-order:stroke fill markers"
         d="m 50,138.47498 c -3.32399,0 -6,2.676 -6,6 v 12 2 8 h 9 2 107 c 3.324,0 6,-2.676 6,-6 v -16 -6 h -7 z m 0,1 h 111 6 v 9 12 c 0,2.77 -2.23,5 -5,5 H 55 53 45 v -7 -2 -12 c 0,-2.77 2.230012,-5 5,-5 z" /><path
         id="path11"
         style="fill:#e6ffff;fill-opacity:1;stroke:none;stroke-width:1.03192;stroke-linecap:square;stroke-linejoin:miter;stroke-dasharray:none;stroke-opacity:1;paint-order:stroke fill markers"
         d="m 171,169.47498 v -2.6764 a 19.489785,19.489785 0 0 1 -2.63844,2.6764 z m -5.02482,0 A 18.028924,18.028924 0 0 0 171,164.31282 v -3.6757 a 16.321243,16.321243 0 0 1 -8.58824,8.83786 z" /></g><g
       id="select_e"
       clip-path="url(#clipPath18)"
       transform="translate(10.999996,-42.265804)"><rect
         style="fill:none;fill-opacity:1;stroke:#000000;stroke-width:4;stroke-linecap:square;stroke-dasharray:none;stroke-opacity:1;paint-order:stroke fill markers"
         id="rect19"
         width="128"
         height="32"
         x="-130"
         y="-363.74078"
         transform="scale(-1)" /><rect
         style="fill:url(#linearGradient22);fill-opacity:1;stroke:#383735;stroke-width:2;stroke-linecap:square;stroke-dasharray:none;stroke-opacity:1;paint-order:stroke fill markers"
         id="rect20"
         width="128"
         height="32"
         x="-130"
         y="331.74078"
         transform="scale(-1,1)" /><path
         id="path20"
         style="fill:#e6ffff;fill-opacity:1;stroke:none;stroke-width:1.03192;stroke-linecap:square;stroke-linejoin:miter;stroke-dasharray:none;stroke-opacity:1;paint-order:stroke fill markers"
         d="m 131,364.74079 v -2.6764 a 19.489785,19.489785 0 0 1 -2.63843,2.6764 z m -5.02482,0 A 18.028924,18.028924 0 0 0 131,359.57863 v -3.6757 a 16.321243,16.321243 0 0 1 -8.58824,8.83786 z" /><path
         id="path21"
         style="fill:#4f4831;fill-opacity:1;stroke:none;stroke-width:1.84136;stroke-linecap:square;stroke-dasharray:none;stroke-opacity:1;paint-order:stroke fill markers"
         d="m 122,361.74078 c 3.32399,0 6,-2.676 6,-6 v -12 -2 -8 h -9 -2 -107 c -3.324,0 -6,2.676 -6,6 v 16 6 h 7 z m 0,-1 H 11 5 v -9 -12 c 0,-2.77 2.23,-5 5,-5 h 107 2 8 v 7 2 12 c 0,2.77 -2.23001,5 -5,5 z" /><path
         id="path22"
         style="fill:#e6ffff;fill-opacity:1;stroke:none;stroke-width:1.03192;stroke-linecap:square;stroke-linejoin:miter;stroke-dasharray:none;stroke-opacity:1;paint-order:stroke fill markers"
         d="m 1,330.74078 v 2.6764 a 19.489785,19.489785 0 0 1 2.63844,-2.6764 z m 5.02482,0 A 18.028924,18.028924 0 0 0 1,335.90294 v 3.6757 a 16.321243,16.321243 0 0 1 8.58824,-8.83786 z" /><path
         style="fill:#e6ffff;fill-opacity:1;stroke-width:0.981985;stroke-linecap:square;paint-order:stroke fill markers"
         d="m 112,341.47498 c 1.42857,3.6 1.42857,8.4 0,12 2.85714,-3 6.42857,-4.8 10,-6 -3.57143,-1.2 -7.14286,-3.6 -10,-6 z"
         id="path4"
         sodipodi:nodetypes="cccc" /><path
         style="opacity:0.75;fill:#e6ffff;fill-opacity:1;stroke-width:0.654657;stroke-linecap:square;paint-order:stroke fill markers"
         d="m 111,343.47498 c 0.95238,2.4 0.95238,5.6 0,8 1.90476,-2 4.28571,-3.2 6.66667,-4 -2.38096,-0.8 -4.76191,-2.4 -6.66667,-4 z"
         id="path5"
         sodipodi:nodetypes="cccc" /><path
         id="path6"
         style="opacity:0.15;fill:#ffffff;fill-opacity:1;stroke-width:0.654657;stroke-linecap:square;paint-order:stroke fill markers"
         d="m 112.75,344.08436 c 0.41692,2.14927 0.42667,4.4854 0.0273,6.64257 1.75567,-1.55971 3.82125,-2.55729 5.88868,-3.25195 -2.07781,-0.69814 -4.15469,-2.00566 -5.91602,-3.39062 z" /></g><g
       id="info"><rect
         y="347.47498"
         width="480"
         height="42"
         id="rect1"
         x="-170"
         style="fill:none" /><path
         id="path8"
         style="fill:#e6ffff;fill-opacity:1;stroke-width:0.459682"
         d="M -117.35938 347.47498 C -117.51826 347.47482 -118.41536 349.69853 -119.35352 352.41639 C -121.27507 357.98319 -121.59132 358.50623 -123.0332 358.50623 C -124.67768 358.50623 -126.95312 357.55167 -126.95312 356.8617 C -126.95312 356.34172 -130.01369 354.36951 -130.82031 354.36951 C -131.42668 354.36951 -129.19817 358.27664 -128.42969 358.56092 C -127.33705 358.96512 -126.46363 362.03954 -127.06055 363.37732 C -127.35493 364.03701 -128.95938 364.82744 -132.51172 366.06482 C -135.28026 367.02917 -137.63975 367.97264 -137.75586 368.16053 C -137.87198 368.34842 -135.74779 369.2707 -133.03516 370.21131 C -127.03507 372.29185 -126.36306 372.90654 -127.1543 375.58631 C -127.51766 376.81688 -128.07995 377.63979 -128.7168 377.87537 C -129.26393 378.07777 -129.71094 378.32835 -129.71094 378.43201 C -129.71094 378.53569 -130.02217 379.3659 -130.40234 380.27576 L -131.09375 381.93006 L -129.91211 381.48084 C -127.80985 380.68155 -126.95312 380.093 -126.95312 379.44959 C -126.95313 379.10302 -126.07451 378.52044 -125 378.15467 C -122.16669 377.19022 -121.33071 377.74089 -120.05859 381.41443 C -119.47492 383.09991 -118.5865 385.60309 -118.08398 386.97693 L -117.17188 389.47498 L -115.25 384.04334 C -112.97901 377.62328 -112.53656 377.15258 -109.68164 378.12537 C -108.56256 378.50667 -107.64648 379.10706 -107.64648 379.4574 C -107.64648 379.97343 -104.5918 381.95154 -103.79492 381.95154 C -103.17314 381.95154 -105.20832 378.12658 -105.98242 377.84021 C -107.13286 377.41464 -108.11431 374.30232 -107.52539 372.94764 C -107.22049 372.24629 -105.69524 371.50234 -101.86133 370.18787 C -98.976221 369.1987 -96.615684 368.26294 -96.615234 368.10779 C -96.614724 367.95263 -98.838773 367.05417 -101.55664 366.1117 C -107.6987 363.98187 -108.30748 363.39893 -107.3418 360.56482 C -106.95632 359.43348 -106.35425 358.50623 -106.00391 358.50623 C -105.41949 358.50623 -103.2409 354.94503 -103.60352 354.5824 C -104.00673 354.17919 -107.58207 356.21772 -107.7207 356.93006 C -107.92112 357.95996 -111.18516 358.9625 -112.49219 358.3949 C -113.16597 358.10232 -113.94619 356.503 -115.25195 352.73084 C -116.25259 349.84017 -117.20049 347.47516 -117.35938 347.47498 z M -110.52539 362.47693 L -110.52539 362.48084 C -110.51639 362.48043 -110.5087 362.48084 -110.5 362.48084 C -110.223 362.48084 -110 362.70384 -110 362.98084 L -110 368.98475 C -110 369.19262 -110.12509 369.36997 -110.30469 369.44568 C -110.31269 369.44868 -110.32063 369.4495 -110.32812 369.4535 C -110.34362 369.4575 -110.3587 369.46532 -110.375 369.46912 C -110.3988 369.47712 -110.42402 369.48095 -110.44922 369.48475 C -110.46622 369.48675 -110.4828 369.4867 -110.5 369.4867 L -123.29297 369.4867 L -119.9043 372.87537 C -119.70844 373.07115 -119.70844 373.38651 -119.9043 373.5824 C -120.10016 373.77818 -120.41546 373.77818 -120.61133 373.5824 L -124.81836 369.37342 C -124.82436 369.36942 -124.82868 369.36159 -124.83398 369.35779 C -124.83998 369.34979 -124.84712 369.34586 -124.85352 369.33826 C -124.85952 369.33026 -124.86579 369.32828 -124.87109 369.32068 L -124.87109 369.31873 C -124.87609 369.31073 -124.88182 369.3068 -124.88672 369.2992 C -124.89172 369.2912 -124.89744 369.28336 -124.90234 369.27576 C -124.90634 369.27176 -124.91036 369.26589 -124.91406 369.26209 C -124.91506 369.26009 -124.91697 369.26018 -124.91797 369.25818 L -124.91797 369.25623 C -124.92197 369.24823 -124.92599 369.2443 -124.92969 369.2367 C -124.93169 369.2327 -124.9355 369.22828 -124.9375 369.22498 C -124.93818 369.22398 -124.93845 369.22207 -124.93945 369.22107 C -124.94045 369.21907 -124.94236 369.21726 -124.94336 369.21326 C -124.94536 369.20926 -124.94722 369.20484 -124.94922 369.20154 C -124.94985 369.20054 -124.95017 369.19864 -124.95117 369.19764 C -124.95217 369.19564 -124.95196 369.19382 -124.95312 369.18982 C -124.95612 369.18182 -124.95989 369.17399 -124.96289 369.16639 C -124.96589 369.15839 -124.96966 369.1525 -124.97266 369.1449 L -124.97266 369.14295 C -124.97312 369.14195 -124.97361 369.14004 -124.97461 369.13904 C -124.97761 369.12774 -124.97942 369.11909 -124.98242 369.10779 C -124.98294 369.10579 -124.98437 369.10398 -124.98438 369.09998 C -124.98524 369.09698 -124.98728 369.09156 -124.98828 369.08826 C -124.98928 369.08026 -124.98906 369.07828 -124.99023 369.07068 C -124.99123 369.06268 -124.99314 369.05485 -124.99414 369.04725 L -124.99414 369.04529 C -124.9951 369.03729 -124.99705 369.03336 -124.99805 369.02576 L -124.99805 369.02186 C -124.99905 369.00676 -125 368.99168 -125 368.97498 C -125 368.96698 -125.00037 368.9611 -125 368.9535 L -125 368.95154 C -124.99965 368.94354 -124.99905 368.9357 -124.99805 368.92811 L -124.99805 368.9242 C -124.99732 368.9162 -124.99514 368.90836 -124.99414 368.90076 C -124.99314 368.88946 -124.99223 368.88276 -124.99023 368.87146 C -124.98942 368.86746 -124.98928 368.86305 -124.98828 368.85975 C -124.98736 368.85575 -124.98537 368.85133 -124.98438 368.84803 C -124.98138 368.83673 -124.97861 368.82612 -124.97461 368.81482 C -124.97415 368.81382 -124.97266 368.81192 -124.97266 368.81092 L -124.97266 368.80896 C -124.97066 368.80096 -124.96684 368.79703 -124.96484 368.78943 C -124.96433 368.78843 -124.96389 368.78653 -124.96289 368.78553 L -124.96289 368.78357 C -124.96209 368.78157 -124.96194 368.77976 -124.96094 368.77576 C -124.95894 368.77176 -124.95612 368.76394 -124.95312 368.76014 C -124.94813 368.75214 -124.94405 368.74235 -124.93945 368.73475 C -124.93645 368.73075 -124.93269 368.72292 -124.92969 368.71912 C -124.92469 368.71112 -124.91936 368.69938 -124.91406 368.69178 C -124.91006 368.68778 -124.90604 368.6819 -124.90234 368.67811 L -124.90234 368.67615 C -124.90134 368.67415 -124.89944 368.67039 -124.89844 368.66639 C -124.89544 368.66239 -124.89042 368.65992 -124.88672 368.65662 L -124.88672 368.65271 C -124.88372 368.64871 -124.88095 368.6443 -124.87695 368.641 C -124.87595 368.639 -124.87309 368.63909 -124.87109 368.63709 L -124.87109 368.63514 C -124.86509 368.62714 -124.85962 368.6232 -124.85352 368.61561 L -120.61133 364.37146 C -120.41547 364.17568 -120.10017 364.17568 -119.9043 364.37146 C -119.70844 364.56724 -119.70844 364.8826 -119.9043 365.0785 L -123.29297 368.46912 L -111 368.46912 L -111 362.97693 C -111 362.70858 -110.79031 362.49028 -110.52539 362.47693 z " /><path
         d="m 257,362.48498 c -1.108,0 -2,0.892 -2,2 v 9 c 0,1.108 0.892,2 2,2 h 12 c 1.108,0 2,-0.892 2,-2 v -9 c 0,-1.108 -0.892,-2 -2,-2 z m 0,1 h 12 c 0.554,0 1,0.446 1,1 v 9 c 0,0.554 -0.446,1 -1,1 h -12 c -0.554,0 -1,-0.446 -1,-1 v -9 c 0,-0.554 0.446,-1 1,-1 z m 1.7188,1 -0.71875,0.6875 2.625,2.8125 -2.5938,2.8125 0.6875,0.6875 2.9688,-3.1562 0.3125,-0.34375 -0.3125,-0.34375 z m 3.2812,7 v 1 h 4 v -1 z"
         fill="#e6ffff"
         id="path1" /><path
         d="m 88.50977,360.47498 c -0.52809,-1e-5 -1.0357,0.20965 -1.4082,0.58398 -0.37025,0.37201 -0.57804,0.87775 -0.57812,1.4023 -0.008,0.54777 -0.44262,0.97755 -0.99023,0.97852 -0.16286,-0.002 -0.32085,-0.0477 -0.46094,-0.13086 a 0.50005,0.50005 0 0 0 -0.008,-0.004 c -0.94825,-0.54336 -2.1712,-0.2126 -2.7168,0.73438 l -0.51562,0.84766 a 0.50005,0.50005 0 0 0 -0.006,0.01 c -0.54496,0.94581 -0.21898,2.168 0.72461,2.7168 a 0.50005,0.50005 0 0 0 0.002,0.002 c 0.30786,0.17772 0.49609,0.50395 0.49609,0.85938 0,0.35554 -0.18818,0.68159 -0.49609,0.85938 -0.94343,0.54576 -1.2713,1.7669 -0.72656,2.7109 a 0.50005,0.50005 0 0 0 0,0.002 l 0.48828,0.8418 0.002,0.002 c 0.25709,0.46235 0.68834,0.80462 1.1973,0.94922 0.50986,0.14497 1.0572,0.0795 1.5195,-0.17969 a 0.50005,0.50005 0 0 0 0.006,-0.004 c 0.22559,-0.13165 0.49383,-0.16716 0.74609,-0.0996 a 0.50005,0.50005 0 0 0 0.002,0 c 0.25231,0.0675 0.46602,0.23231 0.5957,0.45898 a 0.50005,0.50005 0 0 0 0.004,0.008 c 0.0835,0.14076 0.12916,0.29929 0.13086,0.46289 0.003,1.0925 0.89902,1.9883 1.9922,1.9883 h 0.97852 c 1.0911,0 1.987,-0.89332 1.9922,-1.9844 a 0.50005,0.50005 0 0 0 0,-0.004 c -10e-4,-0.26322 0.10291,-0.51496 0.28906,-0.70117 0.18507,-0.18507 0.43568,-0.2872 0.69727,-0.28711 0.16548,0.005 0.32874,0.051 0.47266,0.13281 0.9455,0.54308 2.1684,0.21626 2.7168,-0.72656 l 0.50977,-0.85156 a 0.50005,0.50005 0 0 0 0.004,-0.006 c 0.26597,-0.45645 0.3393,-0.99921 0.20312,-1.5098 -0.13616,-0.51046 -0.46983,-0.94747 -0.92774,-1.2109 -0.22759,-0.13092 -0.39325,-0.34587 -0.46094,-0.59961 -0.0677,-0.25363 -0.0326,-0.52315 0.0996,-0.75 a 0.50005,0.50005 0 0 0 0.002,-0.004 c 0.0852,-0.1488 0.20851,-0.27212 0.35742,-0.35742 a 0.50005,0.50005 0 0 0 0.004,-0.002 c 0.89916,-0.52597 1.2257,-1.6612 0.77734,-2.5859 a 0.50005,0.50005 0 0 0 -0.0527,-0.13086 l -0.48633,-0.84375 c -0.54562,-0.94691 -1.7685,-1.2777 -2.7168,-0.73438 a 0.50005,0.50005 0 0 0 -0.006,0.004 c -0.22567,0.13295 -0.49439,0.17132 -0.74805,0.10547 -0.25358,-0.0658 -0.47094,-0.23099 -0.60352,-0.45703 a 0.50005,0.50005 0 0 0 0,-0.002 c -0.0835,-0.14063 -0.12913,-0.29929 -0.13086,-0.46289 v 0.0195 c 0.0155,-0.53821 -0.1872,-1.0612 -0.5625,-1.4473 -0.37528,-0.38603 -0.89133,-0.60374 -1.4297,-0.60352 h -0.97869 z m 0,1 h 0.97852 c 0.26844,-1.2e-4 0.52569,0.10822 0.71289,0.30078 0.18718,0.19253 0.28703,0.45232 0.2793,0.7207 a 0.50005,0.50005 0 0 0 0,0.0195 c 0.004,0.33821 0.0975,0.6697 0.26953,0.96094 0.26667,0.45468 0.70265,0.78549 1.2129,0.91797 0.50797,0.13186 1.049,0.0576 1.502,-0.20703 0.48013,-0.2751 1.0773,-0.11421 1.3535,0.36523 l 0.46875,0.8125 a 0.50005,0.50005 0 0 0 0.0176,0.0352 c 0.27261,0.47764 0.11336,1.0719 -0.36133,1.3496 -0.30024,0.17284 -0.54975,0.42233 -0.72266,0.72266 v 0.002 c -0.26515,0.45616 -0.33913,0.99992 -0.20312,1.5098 0.13615,0.51038 0.4697,0.9455 0.92773,1.209 0.22756,0.13093 0.39328,0.3479 0.46094,0.60156 0.0673,0.25234 0.0309,0.51999 -0.0996,0.74609 -6.7e-4,0.001 6.8e-4,0.003 0,0.004 l -0.51172,0.85156 a 0.50005,0.50005 0 0 0 -0.004,0.006 c -0.27779,0.47762 -0.87471,0.63719 -1.3535,0.36133 a 0.50005,0.50005 0 0 0 -0.002,-0.002 c -0.2896,-0.1656 -0.61582,-0.25672 -0.94922,-0.26562 a 0.50005,0.50005 0 0 0 -0.01,0 c -0.52982,-0.003 -1.0394,0.20741 -1.4141,0.58203 -0.37447,0.37457 -0.58457,0.88233 -0.58203,1.4121 -0.005,0.55042 -0.44117,0.98438 -0.99219,0.98438 h -0.97852 c -0.55436,0 -0.99414,-0.43796 -0.99414,-0.99219 a 0.50005,0.50005 0 0 0 0,-0.006 c -0.004,-0.33749 -0.0964,-0.66827 -0.26758,-0.95898 -0.26208,-0.45657 -0.69447,-0.79164 -1.2031,-0.92774 -0.50677,-0.13569 -1.0479,-0.063 -1.502,0.19922 -0.23061,0.12928 -0.5016,0.16018 -0.75586,0.0879 -0.25426,-0.0722 -0.46952,-0.24144 -0.59766,-0.47266 a 0.50005,0.50005 0 0 0 -0.004,-0.01 l -0.49219,-0.84766 c -0.27481,-0.47621 -0.11658,-1.0704 0.35938,-1.3457 0.61589,-0.35561 0.99609,-1.0154 0.99609,-1.7266 0,-0.71066 -0.38088,-1.3689 -0.99609,-1.7246 v -0.002 c -0.47648,-0.27816 -0.63497,-0.87326 -0.35938,-1.3516 l 0.51562,-0.84766 a 0.50005,0.50005 0 0 0 0.006,-0.01 c 0.27621,-0.47941 0.87345,-0.64227 1.3535,-0.36719 0.29021,0.17048 0.62038,0.26409 0.95703,0.26758 a 0.50005,0.50005 0 0 0 0.006,0 c 1.0839,1.4e-4 1.9766,-0.88107 1.9922,-1.9648 a 0.50005,0.50005 0 0 0 0,-0.01 c -10e-4,-0.26248 0.10196,-0.51319 0.28711,-0.69922 0.18511,-0.186 0.43681,-0.29102 0.69922,-0.29102 z m 0.49023,4 c -1.6509,0 -3,1.3491 -3,3 0,1.6509 1.3491,3 3,3 1.6509,0 3,-1.3491 3,-3 0,-1.6509 -1.3491,-3 -3,-3 z m 0,1 c 1.1105,0 2,0.88951 2,2 0,1.11049 -0.88951,2 -2,2 -1.11049,0 -2,-0.88951 -2,-2 0,-1.11049 0.88951,-2 2,-2 z"
         fill="#e6ffff"
         id="path2" /><path
         d="m -91,361.47498 c -1.108,0 -2,0.892 -2,2 v 10 c 0,1.108 0.892,2 2,2 h 10 c 1.108,0 2,-0.892 2,-2 v -10 c 0,-1.108 -0.892,-2 -2,-2 z m 0,3 h 10 c 0.554,0 1,0.446 1,1 v 8 c 0,0.554 -0.446,1 -1,1 h -10 c -0.554,0 -1,-0.446 -1,-1 v -8 c 0,-0.554 0.446,-1 1,-1 z m 3,2 v 6 l 4,-3 z"
         fill="#e6ffff"
         id="path3-2" /><path
         id="path12"
         style="fill:#e6ffff;fill-opacity:1;stroke-width:0.459682"
         d="M 55.994141 347.47498 C 55.835251 347.47482 54.938159 349.69853 54 352.41639 C 52.078442 357.98319 51.762191 358.50623 50.320312 358.50623 C 48.675834 358.50623 46.400391 357.55167 46.400391 356.8617 C 46.400391 356.34172 43.339822 354.36951 42.533203 354.36951 C 41.926834 354.36951 44.155349 358.27664 44.923828 358.56092 C 46.016467 358.96512 46.889888 362.03954 46.292969 363.37732 C 45.998589 364.03701 44.396086 364.82744 40.84375 366.06482 C 38.075213 367.02917 35.713766 367.97264 35.597656 368.16053 C 35.481536 368.34842 37.605722 369.2707 40.318359 370.21131 C 46.318443 372.29185 46.990458 372.90654 46.199219 375.58631 C 45.835859 376.81688 45.273568 377.63979 44.636719 377.87537 C 44.089589 378.07777 43.642578 378.32835 43.642578 378.43201 C 43.642578 378.53569 43.331341 379.3659 42.951172 380.27576 L 42.259766 381.93006 L 43.441406 381.48084 C 45.543664 380.68155 46.400391 380.093 46.400391 379.44959 C 46.400391 379.10302 47.279007 378.52044 48.353516 378.15467 C 51.186823 377.19022 52.022803 377.74089 53.294922 381.41443 C 53.878591 383.09991 54.767012 385.60309 55.269531 386.97693 L 56.183594 389.47498 L 58.103516 384.04334 C 60.374503 377.62328 60.816958 377.15258 63.671875 378.12537 C 64.790954 378.50667 65.707031 379.10706 65.707031 379.4574 C 65.707031 379.97343 68.761715 381.95154 69.558594 381.95154 C 70.180373 381.95154 68.147146 378.12658 67.373047 377.84021 C 66.222608 377.41464 65.239206 374.30232 65.828125 372.94764 C 66.133025 372.24629 67.658271 371.50234 71.492188 370.18787 C 74.377295 369.1987 76.737831 368.26294 76.738281 368.10779 C 76.738791 367.95263 74.514742 367.05417 71.796875 366.1117 C 65.654811 363.98187 65.04604 363.39893 66.011719 360.56482 C 66.397198 359.43348 66.99927 358.50623 67.349609 358.50623 C 67.934029 358.50623 70.11262 354.94503 69.75 354.5824 C 69.34679 354.17919 65.771442 356.21772 65.632812 356.93006 C 65.432393 357.95996 62.168357 358.9625 60.861328 358.3949 C 60.187549 358.10232 59.409274 356.503 58.103516 352.73084 C 57.102877 349.84017 56.15303 347.47516 55.994141 347.47498 z M 52.5 361.48279 L 61.5 361.4867 C 61.77701 361.4867 62 361.70966 62 361.9867 C 62 362.26374 61.77701 362.4867 61.5 362.4867 L 53 362.4867 L 53 367.4867 L 60.5 367.4867 C 60.777 367.4867 61 367.70966 61 367.9867 C 61 368.26374 60.77701 368.4867 60.5 368.4867 L 53 368.4867 L 53 374.4867 L 61.5 374.4867 C 61.77701 374.4867 62 374.7097 62 374.9867 C 62 375.26374 61.77701 375.4867 61.5 375.4867 L 52.5 375.4867 C 52.223 375.4867 52 375.2637 52 374.9867 L 52 368.01209 C 51.99957 368.00079 52 367.9943 52 367.9867 C 52 367.9754 51.99957 367.96685 52 367.95936 L 52 361.98475 C 52 361.70771 52.22299 361.48475 52.5 361.48475 L 52.5 361.48279 z " /><path
         id="path13"
         style="fill:#e6ffff;fill-opacity:1;stroke-width:0.459682"
         d="M 230 347.47498 C 229.84111 347.47482 228.94402 349.69853 228.00586 352.41639 C 226.0843 357.98319 225.76805 358.50623 224.32617 358.50623 C 222.68169 358.50623 220.40625 357.55167 220.40625 356.8617 C 220.40625 356.34172 217.34568 354.36951 216.53906 354.36951 C 215.93269 354.36951 218.16121 358.27664 218.92969 358.56092 C 220.02233 358.96512 220.89575 362.03954 220.29883 363.37732 C 220.00445 364.03701 218.39999 364.82744 214.84766 366.06482 C 212.07912 367.02917 209.71963 367.97264 209.60352 368.16053 C 209.4874 368.34842 211.61158 369.2707 214.32422 370.21131 C 220.3243 372.29185 220.99632 372.90654 220.20508 375.58631 C 219.84172 376.81688 219.27943 377.63979 218.64258 377.87537 C 218.09545 378.07777 217.64844 378.32835 217.64844 378.43201 C 217.64844 378.53569 217.3372 379.3659 216.95703 380.27576 L 216.26562 381.93006 L 217.44727 381.48084 C 219.54952 380.68155 220.40625 380.093 220.40625 379.44959 C 220.40625 379.10302 221.28487 378.52044 222.35938 378.15467 C 225.19268 377.19022 226.02866 377.74089 227.30078 381.41443 C 227.88445 383.09991 228.77287 385.60309 229.27539 386.97693 L 230.1875 389.47498 L 232.10938 384.04334 C 234.38036 377.62328 234.82282 377.15258 237.67773 378.12537 C 238.79681 378.50667 239.71289 379.10706 239.71289 379.4574 C 239.71289 379.97343 242.76757 381.95154 243.56445 381.95154 C 244.18623 381.95154 242.15105 378.12658 241.37695 377.84021 C 240.22651 377.41464 239.24506 374.30232 239.83398 372.94764 C 240.13888 372.24629 241.66413 371.50234 245.49805 370.18787 C 248.38315 369.1987 250.74369 368.26294 250.74414 368.10779 C 250.74465 367.95263 248.5206 367.05417 245.80273 366.1117 C 239.66067 363.98187 239.0519 363.39893 240.01758 360.56482 C 240.40306 359.43348 241.00513 358.50623 241.35547 358.50623 C 241.93989 358.50623 244.11848 354.94503 243.75586 354.5824 C 243.35265 354.17919 239.7773 356.21772 239.63867 356.93006 C 239.43825 357.95996 236.17422 358.9625 234.86719 358.3949 C 234.19341 358.10232 233.41318 356.503 232.10742 352.73084 C 231.10678 349.84017 230.15889 347.47516 230 347.47498 z M 231 361.48475 C 233.2895 361.48552 235.43391 362.60587 236.74219 364.48475 L 235.46875 364.48475 C 234.3313 363.21304 232.70618 362.48573 231 362.48475 C 227.68629 362.48475 225 365.17104 225 368.48475 C 225 371.79845 227.68629 374.48475 231 374.48475 C 232.70618 374.48377 234.3313 373.75645 235.46875 372.48475 L 236.72852 372.48475 C 235.42301 374.35965 233.28465 375.4795 231 375.48475 C 227.13401 375.48475 224 372.35073 224 368.48475 C 224 364.61876 227.13401 361.48475 231 361.48475 z " /></g><g id="logo" transform="translate(0.000000,300.000000) scale(0.100000,-0.100000)"
fill="#ffffff" stroke="none">
<path d="M2431 2795 c-5 -19 -25 -60 -44 -92 -19 -32 -63 -114 -97 -183 -67
-135 -126 -230 -142 -230 -6 0 -7 19 -4 48 8 60 -2 77 -32 56 -20 -14 -22 -24
-22 -108 0 -90 -1 -94 -43 -172 -65 -117 -81 -144 -90 -144 -13 0 -26 47 -20
71 6 24 6 24 -16 5 -23 -21 -65 -143 -75 -216 -3 -25 -8 -101 -12 -170 -8
-157 -7 -151 -22 -177 -6 -12 -9 -30 -6 -40 4 -13 3 -14 -4 -5 -7 11 -10 10
-16 -3 -3 -9 -3 -22 1 -28 3 -7 3 -9 -2 -5 -8 8 -43 -60 -48 -93 -2 -10 -11
-27 -20 -37 -16 -18 -16 -20 -2 -26 9 -3 14 -2 11 3 -3 4 5 18 18 30 13 13 27
37 30 55 4 18 22 51 40 72 l34 40 7 169 c5 133 11 183 27 228 22 61 47 93 33
41 -4 -16 -8 -37 -9 -46 0 -10 -4 -18 -8 -18 -4 0 -8 -31 -8 -70 0 -71 12 -90
30 -47 7 16 8 5 3 -38 -3 -33 -7 -70 -7 -82 -1 -15 -4 -18 -13 -12 -6 6 -9 25
-7 44 2 19 0 36 -5 39 -9 6 -24 -141 -15 -155 20 -33 54 13 54 74 0 51 15 57
22 8 4 -32 17 -35 56 -11 32 20 32 20 31 97 -1 69 -2 74 -11 44 -5 -19 -7 -43
-5 -53 3 -10 1 -21 -5 -24 -5 -3 -7 -12 -4 -20 6 -17 -10 -28 -19 -13 -4 6 -3
15 3 21 8 8 7 15 -3 25 -8 7 -12 20 -9 27 3 8 1 17 -5 21 -8 4 -11 -9 -9 -39
1 -45 -8 -72 -16 -45 -8 30 -26 161 -26 193 0 19 -6 37 -12 39 -10 4 -10 6 0
6 7 1 12 17 12 44 0 23 5 49 10 57 12 18 13 13 10 -70 -1 -30 2 -51 6 -47 5 4
7 24 5 43 -2 26 1 33 12 29 10 -5 13 1 9 25 -5 34 16 70 29 49 4 -7 3 -21 -2
-30 -12 -23 -11 -32 2 -23 8 5 8 1 0 -14 -6 -11 -8 -22 -3 -25 4 -2 1 -2 -6
-1 -18 5 -27 -25 -13 -47 7 -12 7 -19 1 -19 -11 0 -14 -49 -4 -74 9 -24 31
-19 36 7 5 28 -1 59 -11 53 -4 -3 -8 11 -8 30 -1 36 12 47 20 17 3 -10 5 28 5
84 0 56 3 107 7 112 14 23 22 9 18 -29 -3 -25 -1 -40 6 -40 6 0 11 6 12 13 3
36 9 104 11 118 1 9 9 22 17 29 12 11 13 5 9 -43 -3 -31 -1 -57 3 -57 14 0 16
24 11 102 -3 54 -1 82 8 93 7 8 10 21 7 29 -4 10 -1 13 9 9 17 -6 18 -19 3
-29 -8 -5 -10 -34 -5 -96 9 -134 22 -135 24 -2 2 111 9 143 39 172 11 11 13
10 13 -7 0 -12 -5 -21 -12 -21 -9 0 -9 -3 0 -12 16 -16 15 -33 -1 -20 -10 9
-13 0 -15 -40 -1 -33 2 -55 10 -60 10 -6 10 -10 -2 -19 -9 -6 -11 -12 -4 -15
6 -2 8 -18 6 -34 -5 -34 36 -153 49 -144 5 3 9 25 9 50 0 35 -4 44 -17 44 -13
0 -14 -3 -5 -12 7 -7 12 -19 12 -27 -1 -10 -6 -7 -14 9 -8 14 -12 28 -10 32 3
5 2 13 -2 19 -4 6 -8 32 -9 58 -1 25 -3 51 -4 56 -2 6 -3 19 -2 30 1 13 7 6
16 -19 8 -22 12 -43 9 -48 -3 -4 0 -8 6 -8 6 0 8 -4 5 -10 -3 -5 -2 -10 3 -10
25 0 42 -179 22 -240 -4 -14 -9 -20 -10 -15 -13 77 -20 84 -21 22 -2 -68 -3
-70 -20 -72 -13 -2 -15 4 -9 36 6 33 5 39 -9 37 -11 -2 -17 6 -19 30 -5 53
-18 36 -18 -23 0 -30 3 -55 8 -55 4 0 8 -29 8 -65 0 -37 4 -65 10 -65 18 0 90
82 96 109 3 14 14 51 25 81 12 30 23 88 26 129 5 60 9 75 24 78 11 3 16 9 13
14 -3 5 -1 9 5 9 19 0 21 -19 3 -32 -20 -14 -38 -98 -21 -98 5 0 9 7 9 16 0
18 31 77 43 82 11 5 8 30 -4 34 -16 5 0 57 22 69 11 5 19 14 19 20 0 6 13 30
30 54 31 45 68 56 62 19 -2 -11 -5 -30 -7 -44 -2 -13 -9 -26 -14 -28 -6 -2
-11 -11 -11 -21 0 -9 -5 -22 -11 -28 -6 -6 -9 -19 -6 -29 5 -23 83 136 137
281 20 55 41 108 45 118 4 10 3 17 -4 17 -6 0 -15 -11 -20 -23 -10 -24 -122
-191 -147 -216 -15 -17 -12 -24 -38 86 -17 69 -17 74 0 103 16 26 17 34 5 67
-9 25 -13 76 -12 150 2 115 -9 146 -28 78z m-11 -193 c0 -61 -31 -98 -45 -53
-6 20 24 101 37 101 5 0 8 -22 8 -48z m-91 -73 c-17 -41 -41 -99 -55 -130 -15
-35 -24 -76 -24 -107 0 -48 8 -74 56 -179 12 -28 21 -62 19 -75 -2 -13 -6 -44
-10 -70 -9 -70 -20 -65 -22 10 -1 43 -13 100 -32 159 -47 139 -44 190 18 317
28 55 55 114 61 130 6 16 13 27 15 24 3 -2 -9 -38 -26 -79z m141 7 c0 -8 -4
-18 -10 -21 -5 -3 -10 3 -10 14 0 12 5 21 10 21 6 0 10 -6 10 -14z m-71 -24
c26 4 31 1 31 -16 0 -17 -2 -18 -10 -6 -8 13 -10 13 -10 -2 0 -11 -6 -15 -18
-11 -22 5 -35 -9 -51 -56 -8 -26 -8 -37 0 -42 8 -5 8 -12 0 -27 -16 -30 -13
-60 7 -71 9 -6 11 -11 5 -11 -7 0 -13 -7 -13 -16 0 -27 -19 -5 -19 24 -1 15
-2 46 -3 69 -1 24 1 46 5 50 11 11 8 25 -4 17 -14 -9 -5 36 17 80 7 16 11 34
8 40 -3 6 1 3 10 -8 11 -13 24 -17 45 -14z m4 -67 c8 -18 -30 -130 -49 -146
-18 -15 -19 3 -2 34 7 12 13 33 13 47 1 14 3 37 3 53 2 29 26 38 35 12z m210
-37 c-3 -16 -9 -28 -14 -28 -12 0 -11 4 3 35 14 31 18 29 11 -7z m-313 -31 c0
-18 -7 -42 -15 -53 -15 -18 -16 -17 -10 16 14 76 25 93 25 37z m126 -2 c-20
-20 -20 -21 0 -83 16 -49 16 -53 -2 -79 -30 -45 -42 -71 -36 -77 3 -3 -1 -6
-8 -6 -7 0 -22 -8 -33 -17 -15 -15 -19 -15 -17 -3 4 27 0 41 -10 35 -9 -6 -14
17 -12 54 1 30 -17 61 -33 55 -8 -3 -15 -1 -15 6 0 6 4 9 9 6 5 -3 11 1 14 9
4 10 1 12 -11 9 -9 -3 -6 1 8 10 24 14 25 14 28 -14 2 -16 10 -34 18 -40 14
-13 20 -35 7 -27 -5 3 -8 -8 -8 -24 l0 -29 17 23 c10 12 18 27 18 34 0 19 22
63 32 63 18 0 6 -49 -22 -86 -16 -21 -30 -44 -30 -51 0 -21 25 -4 38 25 6 15
21 41 32 59 18 27 19 35 8 53 -8 12 -20 19 -30 17 -15 -4 -15 -1 3 31 10 20
19 42 19 49 0 6 6 13 13 16 19 7 21 -1 3 -18z m34 -45 c0 -27 -4 -50 -10 -50
-11 0 -14 83 -3 93 12 12 13 8 13 -43z m122 6 c-18 -32 -33 -37 -41 -15 -2 7
1 9 9 4 9 -5 11 -4 6 3 -11 18 12 52 29 45 14 -5 13 -9 -3 -37z m-282 -129 c0
-5 -4 -5 -10 -2 -5 3 -10 14 -10 23 0 15 2 15 10 2 5 -8 10 -19 10 -23z m-227
-112 c-3 -9 -8 -14 -10 -11 -3 3 -2 9 2 15 9 16 15 13 8 -4z m-159 -122 c-9
-50 -42 -125 -43 -98 -1 10 6 40 15 65 9 25 18 51 20 58 8 28 14 9 8 -25z
m314 -208 c-19 -28 -24 -31 -30 -17 -4 9 -7 20 -7 24 -1 5 26 18 57 27 1 1 -8
-15 -20 -34z m-311 -17 c-3 -7 -5 -2 -5 12 0 14 2 19 5 13 2 -7 2 -19 0 -25z"/>
<path d="M2340 2479 c0 -5 5 -7 10 -4 6 3 10 8 10 11 0 2 -4 4 -10 4 -5 0 -10
-5 -10 -11z"/>
<path d="M500 2808 c0 -2 -2 -91 -4 -198 -3 -193 -13 -255 -45 -274 -16 -10
-45 12 -72 55 -13 20 -48 69 -78 108 -54 71 -77 88 -47 34 8 -15 29 -62 46
-103 42 -100 177 -367 207 -406 23 -31 84 -198 104 -283 5 -25 12 -84 14 -133
5 -102 8 -112 35 -98 37 20 48 12 59 -42 6 -29 11 -84 12 -123 0 -38 3 -92 6
-118 4 -42 8 -48 27 -45 15 2 25 15 36 50 8 27 18 48 23 48 4 0 7 -23 7 -50 0
-28 7 -64 15 -79 13 -26 13 -31 -5 -53 l-19 -24 45 -12 c54 -15 79 -39 95 -90
26 -87 -12 -173 -122 -280 -32 -31 -57 -57 -55 -59 2 -2 32 -11 67 -19 35 -9
70 -23 77 -32 8 -10 12 -51 12 -118 0 -77 4 -105 15 -114 8 -6 19 -8 26 -4 11
7 11 27 -7 189 l-6 61 59 51 c45 40 68 52 98 55 l38 3 12 -50 c6 -27 26 -81
44 -120 l33 -70 -22 -42 c-29 -54 -21 -78 21 -69 17 3 39 1 49 -4 43 -23 65
-194 35 -267 -17 -41 -12 -57 10 -27 7 11 33 27 57 34 24 8 58 26 77 42 38 30
51 28 51 -7 0 -23 24 -45 49 -45 6 0 11 33 13 77 3 73 4 77 32 93 20 11 33 28
40 55 22 78 61 48 54 -41 -3 -37 -2 -39 27 -39 l30 0 -3 58 c-1 34 -11 75 -22
98 -20 38 -20 41 -4 91 10 29 25 63 34 74 9 12 24 50 34 85 10 35 21 70 25 78
12 24 26 12 26 -21 0 -39 33 -53 42 -19 7 26 9 26 41 0 21 -16 35 -19 68 -14
50 7 60 -3 69 -70 10 -75 12 -80 31 -64 11 9 14 22 9 46 -8 42 7 68 47 83 l33
13 -28 6 c-56 12 -187 197 -187 265 0 43 35 91 90 125 55 34 55 34 39 80 -13
37 2 112 36 181 13 25 28 66 35 90 14 54 37 93 50 85 6 -4 10 -41 10 -84 0
-58 4 -82 15 -91 9 -7 19 -10 23 -6 4 4 7 83 7 174 l0 167 36 65 c24 44 41 94
53 155 9 50 25 102 34 116 9 15 30 46 45 69 23 34 27 47 19 65 -6 13 -6 28 -1
37 6 11 5 19 -2 24 -7 4 -9 3 -5 -4 3 -6 2 -13 -4 -17 -5 -3 -10 -1 -10 5 0 6
-5 8 -10 5 -6 -4 -4 -12 5 -21 17 -17 21 -39 5 -29 -5 3 -10 2 -10 -4 0 -5 5
-11 11 -13 8 -3 8 -10 -2 -26 -8 -12 -19 -20 -26 -18 -7 3 -10 -1 -7 -8 3 -7
-5 -30 -18 -49 -64 -101 -78 -127 -88 -173 -5 -27 -12 -59 -15 -71 -3 -11 -37
-44 -75 -73 -39 -29 -75 -61 -81 -72 -6 -11 -15 -49 -20 -85 -5 -36 -19 -83
-30 -103 -23 -41 -89 -95 -159 -130 -25 -12 -58 -32 -74 -43 -20 -14 -27 -16
-24 -6 2 8 45 39 95 69 113 68 138 91 159 146 28 73 1 121 -41 74 -10 -11 -26
-20 -35 -20 -18 0 -55 -24 -56 -37 0 -4 -5 -26 -11 -48 -6 -22 -14 -53 -17
-68 -4 -15 -11 -25 -16 -22 -6 3 -10 0 -10 -7 0 -9 -3 -9 -10 2 -9 13 -14 7
-11 -12 0 -5 -4 -8 -10 -8 -13 0 -40 -26 -33 -33 3 -2 -3 -7 -12 -11 -12 -5
-15 -2 -9 11 4 10 8 23 9 29 2 11 56 94 61 94 2 0 3 -6 2 -12 -1 -33 4 -49 13
-43 16 10 13 85 -4 85 -7 0 -34 -27 -60 -60 -45 -57 -47 -63 -44 -113 1 -28
-1 -58 -5 -64 -5 -7 -5 -13 -1 -13 11 0 112 59 194 113 81 53 84 57 164 162
59 77 103 122 112 112 3 -3 -12 -25 -33 -49 -21 -24 -63 -73 -91 -110 -84
-106 -192 -201 -267 -234 l-66 -29 1 -135 c1 -109 -3 -149 -20 -209 -11 -41
-19 -80 -16 -87 3 -8 0 -11 -10 -7 -17 6 -17 -2 1 78 13 55 14 84 5 168 -6 56
-13 110 -16 120 -3 10 0 25 7 33 20 24 4 26 -35 3 -20 -11 -36 -18 -36 -14 0
4 -7 2 -15 -5 -10 -8 -15 -9 -15 -1 0 6 14 18 31 26 17 9 29 19 26 21 -3 3
-24 -7 -47 -21 -24 -15 -38 -30 -33 -34 6 -3 9 -18 7 -33 -2 -24 -1 -26 16
-16 11 7 17 14 15 17 -3 2 5 11 17 19 19 14 22 13 34 -3 8 -10 11 -29 7 -43
-3 -15 -1 -27 8 -33 11 -7 11 -9 1 -9 -17 0 -57 -38 -49 -46 4 -4 16 1 27 11
29 26 38 10 11 -19 -13 -14 -21 -31 -18 -38 4 -9 6 -7 6 5 1 21 31 23 31 2 0
-8 -5 -15 -10 -15 -6 0 -9 -5 -8 -11 4 -15 -29 -35 -39 -25 -4 5 -2 11 4 13
10 3 9 9 -3 20 -19 20 -26 12 -29 -34 -2 -21 -1 -33 2 -26 2 7 11 9 19 6 9 -3
29 4 45 16 19 15 29 17 29 9 0 -16 -53 -65 -81 -73 -10 -4 -17 -10 -15 -14 5
-8 -41 -47 -59 -49 -19 -3 -10 33 13 52 21 17 24 26 20 68 -3 26 -2 48 1 48 4
0 5 18 3 39 -3 29 -8 38 -18 34 -8 -3 -11 -10 -7 -16 14 -23 11 -57 -8 -79
l-21 -23 7 25 c4 14 7 49 7 78 0 28 4 52 9 52 5 0 9 -5 9 -11 0 -5 5 -7 11 -4
6 5 3 13 -10 22 -12 8 -21 25 -21 40 0 23 2 24 17 12 15 -12 16 -12 10 4 -4
10 -7 21 -7 23 0 3 -4 3 -9 0 -5 -3 -11 1 -15 9 -3 8 -2 15 2 16 29 3 47 11
75 32 18 13 42 27 55 31 14 5 22 15 22 30 0 12 7 31 15 42 28 37 15 50 -15 14
-17 -19 -30 -43 -30 -55 0 -16 -2 -17 -10 -5 -8 13 -10 12 -10 -4 0 -16 -2
-16 -16 -6 -8 8 -14 9 -13 4 4 -19 -14 -44 -42 -58 -33 -16 -37 -13 -34 29 1
17 3 42 3 58 1 15 7 27 13 27 6 0 8 -9 4 -21 -5 -15 -4 -19 4 -15 17 11 13 -5
-6 -26 -20 -22 -11 -35 10 -13 20 19 19 216 -1 223 -7 2 -9 9 -6 14 4 7 2 8
-4 4 -8 -5 -12 1 -13 16 -1 13 -3 37 -5 53 -2 24 -1 27 7 13 6 -10 15 -18 20
-18 6 0 7 5 4 10 -7 12 12 40 26 40 5 0 9 -7 9 -15 0 -8 5 -15 11 -15 6 0 9 9
6 19 -3 12 4 29 15 41 11 12 18 24 15 27 -7 6 -44 -19 -45 -31 0 -5 -14 -15
-31 -22 -28 -12 -31 -11 -32 4 -1 9 -3 31 -5 47 -5 41 14 89 31 75 18 -15 14
122 -4 144 -11 13 -16 14 -22 4 -4 -7 -3 -16 4 -20 6 -4 8 -10 4 -14 -17 -17
-30 31 -15 59 6 12 4 22 -7 33 -11 11 -13 20 -5 28 5 7 7 16 3 19 -3 4 -1 7 5
7 5 0 12 -6 15 -12 3 -7 4 -3 4 8 -1 14 -6 20 -14 17 -7 -3 -13 0 -13 5 0 16
14 22 37 16 14 -4 20 -14 20 -35 0 -16 4 -34 9 -39 5 -5 8 10 6 39 -3 31 1 53
10 62 21 21 29 47 16 55 -7 4 -8 3 -4 -4 5 -8 0 -11 -15 -9 -13 2 -25 10 -27
17 -3 8 1 11 10 8 8 -4 21 -2 29 4 11 8 9 8 -6 4 -19 -6 -19 -5 -3 7 10 8 15
17 11 20 -3 4 1 7 10 7 10 0 17 7 17 16 0 11 6 15 20 11 11 -3 23 0 27 5 4 7
1 8 -7 3 -10 -6 -11 -4 -4 6 5 8 9 16 9 19 0 3 10 19 23 35 l22 30 -11 -27
c-7 -16 -16 -28 -21 -28 -5 0 -6 -5 -3 -11 11 -17 -4 -59 -21 -59 -11 0 -12
-4 -4 -19 7 -13 7 -22 0 -26 -5 -3 -10 -1 -10 6 0 7 -3 9 -7 5 -5 -4 1 -14 11
-22 17 -12 17 -14 3 -19 -8 -4 -18 -18 -21 -31 -4 -16 -11 -22 -19 -17 -7 4
-6 0 2 -11 13 -15 12 -21 -2 -46 -13 -21 -14 -31 -6 -36 7 -4 9 -3 6 3 -7 11
20 28 37 24 5 -1 6 5 3 13 -4 9 -2 18 3 21 6 4 10 -7 10 -24 0 -18 -5 -31 -12
-31 -15 0 -38 -46 -38 -74 1 -15 7 -9 20 19 l19 40 -6 -54 c-5 -48 -4 -54 10
-48 23 9 21 -6 -3 -28 -11 -10 -20 -15 -20 -10 0 13 -38 -39 -40 -55 -5 -36 0
-49 17 -43 9 4 12 8 6 10 -17 6 -3 47 24 67 l25 19 -7 -24 c-4 -13 -12 -30
-18 -37 -14 -18 0 -27 18 -12 10 8 15 26 14 44 -2 17 3 41 10 54 6 12 9 27 5
34 -4 6 -1 9 7 6 20 -7 23 -94 3 -102 -7 -3 -14 -12 -14 -19 0 -8 -12 -26 -27
-41 -20 -20 -24 -29 -15 -38 9 -9 12 -8 12 7 0 10 3 15 7 12 3 -4 1 -17 -5
-30 -6 -12 -11 -30 -9 -39 1 -9 -2 -17 -7 -17 -5 0 -14 -10 -20 -23 -7 -13
-21 -23 -33 -22 -13 0 -19 -4 -16 -13 3 -7 0 -13 -6 -13 -6 0 -11 5 -11 10 0
6 -6 10 -12 10 -7 -1 -2 -10 12 -21 l25 -21 14 21 c7 12 18 21 23 21 15 0 -2
-43 -24 -62 -11 -10 -15 -18 -9 -18 6 0 11 -13 11 -30 0 -16 3 -30 6 -30 12 0
50 24 61 39 17 23 6 27 -17 6 -17 -15 -23 -16 -33 -6 -9 11 -9 14 1 18 6 3 10
9 7 14 -3 4 2 20 11 34 14 21 14 28 3 42 -12 14 -12 16 2 11 19 -7 39 44 43
108 1 23 9 52 19 65 16 23 16 22 11 -36 -6 -61 -42 -185 -55 -185 -4 0 -9 -9
-12 -20 -4 -17 -1 -17 30 7 24 19 33 32 29 46 -2 10 -2 16 2 13 13 -13 30 38
21 66 -4 15 -4 28 1 28 5 0 9 42 9 93 1 50 3 103 5 117 17 127 68 259 109 277
23 11 26 18 32 100 4 48 16 121 27 161 19 71 19 75 2 142 -10 39 -22 70 -25
70 -4 0 -10 -14 -14 -31 -4 -17 -30 -60 -57 -97 -28 -37 -76 -107 -106 -157
-63 -104 -143 -184 -184 -185 l-28 0 -1 118 c0 64 -2 124 -3 132 -2 8 -6 92
-10 185 -9 212 -12 219 -96 213 -32 -2 -65 -10 -74 -17 -19 -16 -21 -79 -6
-131 6 -19 18 -126 26 -237 8 -112 15 -213 17 -225 2 -20 -2 -23 -31 -21 -63
2 -150 92 -159 163 -4 29 -12 45 -27 51 -21 10 -163 190 -201 255 -23 38 -41
46 -30 12 5 -13 9 -66 10 -118 1 -52 8 -127 14 -167 7 -40 10 -76 7 -82 -6
-10 11 -95 38 -191 15 -53 13 -96 -3 -85 -5 2 -11 18 -14 34 -4 19 -37 62 -91
118 -56 57 -99 113 -122 158 -21 39 -49 84 -65 102 -15 17 -32 49 -39 70 -15
50 -193 403 -202 403 -5 0 -8 -1 -8 -2z m48 -115 c-1 -5 3 -18 10 -30 8 -15 9
-23 2 -23 -5 0 -10 6 -11 13 0 6 -7 -4 -14 -23 l-14 -35 2 33 c1 17 5 32 10
32 5 0 7 6 4 14 -3 8 -3 17 0 20 9 8 13 8 11 -1z m982 -46 c0 -32 0 -32 -52
-32 -29 -1 -59 -3 -67 -5 -8 -3 -14 5 -17 26 -3 25 1 33 22 43 33 15 61 14 67
-1 3 -8 6 -6 6 5 1 15 5 16 21 7 14 -7 20 -21 20 -43z m-952 -52 c18 -40 15
-65 -8 -65 -11 0 -20 6 -21 13 -6 69 -6 77 6 77 6 0 17 -11 23 -25z m941 6
c12 -8 13 -14 3 -35 -10 -23 -14 -25 -32 -14 -23 15 -25 29 -8 46 14 14 18 15
37 3z m-59 -48 c47 -37 80 -79 80 -103 0 -7 -11 -4 -27 7 -16 10 -45 27 -65
38 -35 18 -48 38 -48 78 0 24 5 22 60 -20z m80 -20 c0 -20 -3 -24 -11 -16 -7
7 -9 19 -6 27 10 24 17 19 17 -11z m-977 -36 c-3 -6 9 1 29 16 19 15 37 27 40
27 18 0 71 -198 61 -229 -3 -12 -2 -12 7 2 6 9 15 17 19 17 14 0 7 -35 -8 -41
-12 -4 -10 -10 9 -29 21 -21 22 -29 17 -94 l-5 -71 13 53 c16 64 9 138 -11
121 -10 -8 -11 -6 -1 15 7 14 16 26 20 26 5 0 5 -5 1 -11 -3 -6 -1 -15 7 -19
13 -9 21 -150 8 -150 -5 0 -26 -61 -35 -100 0 -3 -4 -12 -7 -20 -10 -23 -3
-130 8 -129 6 0 9 7 7 16 -2 9 1 12 8 8 6 -4 9 -19 6 -33 -7 -32 17 -119 30
-112 5 3 7 10 5 15 -14 37 -21 110 -15 170 3 38 7 72 9 75 1 3 6 32 10 64 5
44 3 61 -7 68 -10 8 -10 11 0 15 6 2 12 11 12 19 0 8 5 14 10 14 13 0 13 -78
-2 -228 -10 -105 -9 -125 3 -133 10 -6 10 -9 2 -9 -7 0 -13 -7 -13 -15 0 -8 6
-15 13 -16 6 0 8 -2 2 -5 -11 -5 -12 -65 -1 -82 12 -20 -9 -13 -24 8 -8 11
-19 20 -25 20 -6 0 -20 7 -31 16 -10 8 -14 13 -8 10 6 -3 11 7 11 26 0 28 -2
29 -13 13 -7 -10 -15 -23 -17 -29 -2 -6 -8 -8 -12 -4 -4 4 -2 14 5 23 10 12
10 35 0 115 -8 62 -9 118 -4 148 5 26 9 54 9 62 0 8 4 20 7 25 9 15 13 83 5
91 -4 4 -7 -1 -7 -11 0 -10 -3 -15 -7 -11 -10 9 -31 -114 -32 -184 -1 -30 3
-70 9 -89 5 -19 7 -45 3 -59 -5 -23 -7 -22 -20 14 -15 44 -26 234 -13 234 5 0
12 16 16 36 5 28 3 39 -10 46 -9 5 -16 16 -16 24 0 8 -7 26 -16 39 -9 14 -13
25 -8 25 4 0 -2 10 -14 23 -24 26 -48 106 -39 131 16 42 57 -14 57 -77 0 -49
18 -86 32 -66 10 14 7 2 -8 -36 -5 -11 -2 -13 11 -9 14 6 16 3 11 -14 -4 -11
-2 -23 4 -27 21 -13 5 144 -26 253 l-16 53 -23 -25 c-13 -15 -31 -26 -39 -26
-17 0 -25 -11 -31 -40 -2 -11 -8 -28 -14 -37 -9 -16 -10 -16 -11 5 0 12 4 22
9 22 10 0 4 97 -6 114 -4 5 8 0 25 -13 18 -13 29 -27 25 -34z m60 -21 c4 -10
1 -13 -9 -9 -7 3 -14 9 -14 14 0 14 17 10 23 -5z m426 -26 c0 -10 -3 -8 -9 5
-12 27 -12 43 0 25 5 -8 9 -22 9 -30z m391 30 c12 -8 12 -13 -2 -42 -17 -33
-17 -33 -17 -6 -1 14 -4 33 -7 42 -7 18 4 20 26 6z m-420 -34 c0 -13 3 -26 8
-28 41 -18 192 -274 192 -326 0 -14 7 -34 17 -44 10 -11 12 -18 4 -18 -7 0 -9
-10 -6 -27 3 -16 8 -73 12 -128 6 -103 13 -125 42 -125 11 0 12 3 4 8 -16 10
-33 95 -31 157 1 28 -2 61 -5 75 -4 14 -5 19 -1 13 9 -21 26 -15 19 7 -4 11
-2 20 4 20 6 0 11 -6 12 -12 0 -7 4 -4 8 7 10 24 3 41 -11 27 -12 -12 -50 -3
-42 10 3 5 12 4 20 -3 16 -13 18 -1 5 20 -8 12 -12 12 -25 2 -12 -11 -15 -9
-13 8 1 12 7 21 14 21 7 0 13 7 13 16 0 8 5 12 10 9 6 -3 10 -17 10 -30 0 -30
28 -47 53 -33 15 8 19 6 24 -11 3 -12 10 -21 15 -21 5 0 6 5 3 10 -3 6 1 10 9
10 10 0 16 -9 16 -21 0 -18 -4 -21 -29 -16 -20 4 -33 1 -42 -9 -12 -14 -6 -15
51 -10 146 14 168 15 227 9 52 -5 60 -8 48 -19 -16 -17 -340 -30 -330 -14 4 6
1 10 -4 10 -17 0 -12 -23 10 -50 11 -14 18 -19 14 -11 -4 7 -2 17 5 21 8 5 25
-4 47 -25 30 -30 33 -37 28 -69 -4 -20 -11 -34 -15 -31 -4 2 -16 -5 -26 -16
-16 -18 -19 -39 -21 -130 -2 -88 0 -109 12 -109 8 0 21 -10 29 -22 18 -25 21
-42 7 -33 -5 3 -11 -5 -13 -17 -2 -13 -7 -21 -12 -20 -5 2 -13 -3 -18 -12 -8
-15 -12 -14 -40 5 -24 17 -29 27 -26 50 3 15 1 26 -4 23 -4 -3 -8 2 -8 10 0
20 14 20 30 1 10 -12 10 -18 0 -30 -9 -10 -9 -15 -1 -15 6 0 11 4 11 9 0 10
26 9 36 -2 13 -12 24 -7 18 8 -4 8 -11 15 -16 15 -15 0 -123 109 -115 116 4 4
7 2 7 -4 0 -7 4 -12 9 -12 5 0 8 16 6 35 -3 26 0 35 11 35 9 0 12 -4 9 -10 -3
-5 -1 -10 4 -10 18 0 12 -18 -6 -23 -17 -4 -17 -5 0 -6 36 -2 31 30 -12 68
-22 20 -41 44 -41 53 0 8 -7 21 -16 29 -9 8 -13 21 -10 35 10 37 -13 215 -35
279 -29 83 -93 201 -140 257 -37 44 -51 88 -29 88 6 0 10 -11 10 -24z m493
-11 c15 -13 27 -33 27 -44 0 -20 -1 -19 -36 4 -20 14 -41 25 -46 25 -5 0 -4 9
2 20 14 25 19 25 53 -5z m427 -56 c-50 -53 -114 -181 -136 -269 -11 -41 -16
-104 -16 -170 0 -87 -3 -109 -19 -131 -10 -14 -15 -29 -12 -33 4 -4 -1 -4 -10
0 -12 4 -16 12 -11 23 15 31 17 153 2 162 -7 5 -8 9 -2 9 6 0 14 27 17 60 12
110 102 293 191 388 21 22 32 29 34 19 2 -7 -16 -33 -38 -58z m-1580 26 c6 -8
9 -19 5 -25 -9 -14 -28 -13 -22 3 2 6 -3 17 -12 24 -15 11 -15 12 0 13 9 0 22
-7 29 -15z m1167 -47 c11 -14 26 -68 19 -68 -3 0 -22 12 -43 26 -21 14 -48 30
-60 35 -20 7 -21 11 -12 33 l12 25 37 -19 c20 -10 41 -24 47 -32z m-974 23 c3
-14 1 -18 -9 -14 -15 6 -18 16 -7 26 9 10 10 9 16 -12z m102 -11 c3 -5 1 -10
-4 -10 -6 0 -11 5 -11 10 0 6 2 10 4 10 3 0 8 -4 11 -10z m-150 -163 c12 -14
15 -29 12 -55 -6 -35 -5 -36 6 -9 13 33 23 34 31 3 3 -13 18 -29 35 -35 32
-14 41 -40 41 -126 0 -29 7 -69 15 -88 8 -20 15 -57 15 -81 0 -43 2 -47 38
-65 21 -11 58 -36 81 -55 24 -20 46 -36 50 -36 5 0 7 54 6 120 -1 66 1 120 5
120 9 0 25 -151 22 -205 -3 -40 25 -95 49 -95 5 0 9 34 9 75 0 43 4 75 10 75
6 0 10 -19 10 -42 0 -106 20 -144 69 -131 21 5 22 10 20 92 -2 90 7 145 22
135 5 -3 9 -11 7 -17 -1 -7 2 -30 6 -52 10 -48 14 -126 6 -119 -3 3 -10 27
-17 52 -12 46 -12 46 -8 7 3 -22 5 -60 5 -84 0 -39 5 -48 61 -105 34 -34 74
-87 90 -120 16 -33 39 -70 50 -82 12 -12 19 -27 15 -32 -8 -13 38 -32 54 -22
23 14 -3 79 -33 80 -4 0 2 -13 14 -30 25 -33 21 -48 -8 -31 -12 7 -14 10 -4
11 8 0 2 10 -15 26 -16 15 -24 24 -17 20 26 -14 17 20 -13 53 -18 19 -31 38
-28 42 3 5 -4 17 -15 28 -32 32 -51 77 -51 121 0 38 -19 58 -21 23 -1 -10 -5
-2 -9 17 l-7 35 -2 -32 c0 -19 -6 -33 -13 -33 -8 -1 -6 -6 5 -14 18 -14 23
-36 8 -36 -15 0 -22 42 -25 145 -3 99 -22 205 -38 205 -4 0 -5 -7 -1 -16 5
-14 3 -15 -15 -5 -14 7 -23 8 -27 1 -3 -5 1 -10 9 -10 9 0 16 -9 16 -20 0 -12
-7 -20 -17 -20 -15 0 -16 -2 -3 -10 13 -8 13 -11 1 -19 -8 -5 -10 -14 -6 -22
12 -18 9 -89 -4 -119 -10 -24 -11 -23 -7 8 7 56 -4 100 -23 95 -17 -4 -31 25
-45 92 -2 11 -4 3 -5 -17 0 -20 -6 -40 -12 -43 -6 -4 -7 -19 -4 -36 7 -32 -1
-53 -17 -43 -6 4 -6 9 -1 13 5 3 8 38 5 76 -3 48 -7 64 -13 50 -6 -17 -8 -15
-8 11 -1 17 -7 49 -15 70 -7 22 -11 45 -9 52 8 22 -7 13 -17 -10 -5 -15 -7 1
-3 47 3 39 9 72 14 75 4 3 9 18 11 34 l3 28 29 -27 c33 -31 34 -49 13 -172 -7
-40 -12 -73 -11 -73 1 0 9 -3 18 -6 18 -7 46 77 46 140 1 37 2 39 15 23 7 -11
12 -27 10 -37 -2 -13 1 -17 10 -14 9 4 17 -4 21 -21 3 -14 9 -23 12 -20 3 3
12 -5 19 -17 11 -21 12 -22 13 -3 0 16 3 13 14 -10 33 -72 47 -128 49 -188 1
-36 5 -63 10 -60 4 2 7 -3 7 -12 0 -11 5 -15 14 -12 11 4 17 -10 25 -56 7 -40
21 -76 42 -105 26 -36 29 -46 18 -53 -12 -7 -11 -9 1 -9 8 0 28 -13 43 -30 40
-42 76 -40 43 3 -14 18 -32 24 -21 7 3 -5 1 -10 -5 -10 -7 0 -9 8 -5 20 3 11
2 20 -3 20 -17 0 -82 105 -98 155 -8 27 -15 88 -15 135 0 47 -7 116 -15 153
-14 72 -72 189 -102 206 -9 5 -13 13 -9 17 13 13 77 -59 107 -122 32 -66 46
-146 54 -294 2 -52 8 -106 14 -120 14 -36 103 -152 111 -144 3 4 0 9 -6 11 -7
3 -13 11 -13 18 0 22 -26 65 -35 57 -5 -4 -5 -1 -1 6 4 6 4 12 -1 12 -4 0 -16
26 -25 58 -24 81 -30 112 -20 112 13 0 40 -68 48 -120 4 -27 14 -50 26 -58 11
-8 23 -25 29 -39 l9 -24 31 30 c17 17 35 31 40 31 19 0 8 -31 -21 -62 -29 -30
-31 -36 -28 -102 2 -42 7 -71 14 -71 6 0 18 -8 28 -18 14 -14 16 -20 6 -32
-12 -15 -35 -11 -25 5 3 4 -2 13 -10 20 -13 11 -15 8 -15 -14 0 -21 7 -29 29
-37 28 -10 29 -13 30 -75 0 -61 -4 -70 -32 -65 -5 1 -6 -3 -2 -9 3 -5 -1 -13
-9 -16 -9 -3 -16 -16 -16 -28 1 -21 1 -21 15 -2 15 20 15 20 30 0 8 -10 14
-30 14 -44 0 -14 -3 -19 -6 -12 -2 6 -11 12 -19 12 -8 0 -14 5 -14 10 0 6 -4
10 -10 10 -17 0 -11 -68 10 -102 14 -23 20 -27 20 -15 0 10 -7 29 -16 43 -12
18 -14 28 -6 36 21 21 41 -43 39 -129 l-2 -80 -32 25 c-18 13 -33 19 -33 13 0
-6 8 -15 18 -18 19 -8 42 -35 36 -44 -2 -4 -4 -31 -5 -60 -1 -30 -5 -59 -10
-64 -4 -6 -9 -31 -11 -55 l-3 -45 -17 55 c-9 30 -19 69 -23 85 -7 27 -8 28
-15 10 -7 -16 -9 -14 -10 15 l-2 35 -9 -35 c-5 -19 -6 -54 -3 -78 8 -53 28
-70 22 -18 -2 20 0 36 4 36 4 0 8 -14 8 -31 0 -17 6 -37 14 -45 8 -8 12 -23 9
-35 -4 -14 -2 -20 4 -16 7 5 9 -1 5 -15 -4 -16 -2 -19 8 -13 9 6 11 4 5 -5 -4
-7 -2 -16 6 -21 11 -7 12 -12 2 -29 -17 -27 -16 -35 2 -20 21 17 19 -3 -2 -27
-10 -10 -17 -17 -16 -14 2 2 -2 10 -8 18 -9 9 -8 17 1 27 9 12 7 18 -9 32 -12
10 -23 36 -27 61 -3 24 -11 46 -17 50 -7 4 -8 -6 -4 -30 4 -28 2 -37 -8 -37
-16 0 -20 6 -29 43 -4 18 -3 26 3 23 21 -14 20 17 -4 85 -30 85 -32 124 -7
138 15 9 15 10 0 11 -26 0 -40 -56 -29 -115 10 -55 8 -67 -7 -38 -15 27 -27
137 -14 130 5 -4 15 7 22 23 7 16 16 27 21 24 5 -3 9 -1 9 5 0 5 -6 14 -13 18
-8 4 -17 25 -20 47 -6 37 -6 38 13 21 24 -22 26 -13 4 20 -19 29 -7 33 22 7
10 -9 31 -18 45 -20 23 -2 25 1 21 28 -2 16 -8 30 -12 30 -18 0 -80 65 -80 84
0 12 -7 31 -15 42 -18 21 -18 28 0 -80 5 -28 2 -43 -11 -57 -15 -17 -16 -26
-6 -83 14 -76 15 -86 3 -86 -5 0 -12 12 -16 28 -3 15 -13 42 -22 60 -12 25
-13 35 -3 47 6 8 9 18 6 23 -3 5 -1 33 3 63 9 56 4 112 -9 104 -7 -4 -17 16
-25 55 -2 8 -9 16 -15 18 -6 2 -16 10 -24 17 -7 8 -16 11 -20 8 -3 -3 -12 -1
-20 6 -11 9 -15 9 -19 -1 -3 -8 -9 -2 -17 15 -7 15 -17 27 -21 27 -4 0 -10 7
-13 15 -5 13 -1 12 18 -2 13 -10 22 -21 19 -25 -2 -5 2 -8 9 -9 44 -3 62 -8
86 -26 15 -11 28 -32 30 -46 5 -39 22 -33 22 7 0 32 -4 35 -75 70 -52 26 -85
50 -112 82 -59 72 -96 107 -139 131 -21 11 -52 40 -69 63 -16 23 -46 60 -66
82 -31 36 -37 39 -50 25 -13 -13 -15 -10 -14 27 1 34 5 42 23 44 12 2 22 7 22
11 0 5 -12 6 -27 3 -21 -4 -25 -2 -20 12 4 9 2 28 -4 43 -7 18 -6 30 1 37 10
10 14 -2 11 -30 -2 -20 37 -47 60 -41 16 4 30 -3 55 -28 28 -29 34 -32 45 -19
14 17 16 16 -61 61 -25 15 -57 40 -72 55 -14 15 -31 28 -37 28 -6 0 -11 13
-11 29 0 16 -7 34 -15 41 -7 6 -17 33 -21 58 -3 26 -11 52 -18 57 -11 10 -18
22 -81 140 -17 33 -53 94 -78 137 -25 42 -43 79 -40 82 4 3 2 6 -4 6 -6 0 -19
12 -28 26 -17 26 -17 27 3 22 12 -3 21 -3 20 1 -3 24 8 14 56 -51 30 -40 62
-81 71 -91z m13 151 c15 -15 16 -65 1 -74 -6 -3 -20 3 -32 14 -18 18 -19 25
-9 47 13 28 22 31 40 13z m538 -34 c19 -20 34 -38 34 -40 0 -2 -11 -3 -24 -2
-14 1 -23 5 -21 8 6 9 -13 35 -20 28 -9 -8 10 -43 50 -93 46 -57 52 -69 29
-57 -49 26 -83 77 -92 135 -5 34 -5 57 0 57 5 0 25 -16 44 -36z m888 -13 c-16
-16 -37 -39 -46 -52 -9 -13 -17 -19 -18 -12 0 6 7 18 15 27 8 8 15 21 15 28 0
14 51 50 59 42 3 -2 -8 -17 -25 -33z m-476 -48 l-33 -34 -3 30 c-2 16 2 39 8
51 10 19 12 19 36 4 l25 -17 -33 -34z m-888 42 c0 -26 1 -29 22 -70 11 -22 25
-48 30 -59 7 -13 6 -21 -2 -26 -7 -4 -10 -13 -6 -18 4 -7 -2 -9 -15 -7 -31 6
-34 12 -9 20 17 5 19 10 9 21 -6 8 -17 14 -24 14 -16 0 -41 29 -50 59 -5 17
-4 21 5 16 7 -4 16 -1 21 6 12 19 11 42 -1 34 -6 -3 -7 1 -4 9 8 20 24 21 24
1z m591 -12 c13 -16 12 -17 -3 -4 -10 7 -18 15 -18 17 0 8 8 3 21 -13z m29
-43 c-9 -5 -9 -9 -1 -14 13 -9 15 -26 2 -26 -5 0 -14 14 -20 30 -6 18 -6 28
-1 25 6 -4 10 2 10 12 1 17 1 17 11 -1 9 -14 8 -20 -1 -26z m750 18 c0 -5 -16
-28 -35 -51 -19 -22 -35 -47 -35 -54 0 -7 -4 -13 -8 -13 -4 0 -8 17 -8 39 0
31 3 37 17 34 11 -3 19 2 23 15 4 11 14 23 22 26 9 3 12 11 8 17 -4 8 -3 9 4
5 7 -4 12 -12 12 -18z m-421 3 c7 -5 15 -25 16 -44 l3 -35 -43 21 -43 22 21
23 c23 25 26 25 46 13z m-429 -23 c21 -23 27 -48 10 -48 -5 0 -10 9 -10 20 0
11 -4 20 -9 20 -5 0 -11 7 -15 15 -8 21 0 19 24 -7z m379 -37 c12 -8 10 -15
-10 -39 -30 -39 -36 -39 -34 -4 3 47 16 60 44 43z m471 -7 c0 -4 -16 -29 -36
-57 -46 -63 -60 -98 -79 -189 -9 -40 -18 -74 -22 -77 -11 -11 6 125 22 174 24
70 115 188 115 149z m-884 -25 c65 -40 120 -145 129 -246 l5 -58 -23 75 c-28
89 -68 166 -104 198 -29 26 -40 23 -24 -7 7 -12 7 -22 2 -26 -12 -7 -17 2 -25
48 -8 43 -5 44 40 16z m164 13 c0 -13 -12 -22 -22 -16 -10 6 -1 24 13 24 5 0
9 -4 9 -8z m-84 -27 c-3 -8 2 -19 9 -25 8 -7 12 -17 8 -23 -4 -6 -11 -3 -20 8
-16 22 -18 69 -2 60 6 -4 8 -13 5 -20z m388 3 c19 -27 21 -58 3 -58 -10 0 -42
18 -66 37 -6 4 30 43 40 43 4 0 15 -10 23 -22z m-288 -18 c0 -23 -11 -27 -19
-6 -3 8 -1 17 6 20 7 2 12 5 12 5 1 1 1 -8 1 -19z m604 -5 c0 -8 -4 -15 -10
-15 -5 0 -7 7 -4 15 4 8 8 15 10 15 2 0 4 -7 4 -15z m-320 -57 c0 -5 -3 -8 -7
-8 -5 -1 -27 -5 -50 -9 -46 -9 -49 -6 -32 32 11 24 12 24 50 8 21 -9 39 -19
39 -23z m-748 -3 c-2 -14 -8 -25 -13 -25 -10 0 -11 7 -3 37 8 31 23 20 16 -12z
m1053 26 c3 -5 1 -12 -5 -16 -5 -3 -10 1 -10 9 0 18 6 21 15 7z m-752 -20 c-2
-6 4 -11 12 -11 8 0 15 -7 15 -15 0 -22 -26 -8 -39 21 -9 20 -9 25 1 21 7 -2
12 -10 11 -16z m236 -10 c-3 -6 -10 -7 -18 -2 -7 5 -10 14 -6 21 9 14 29 -2
24 -19z m241 -31 c0 -5 -17 -10 -39 -10 -21 0 -53 -3 -70 -6 -19 -4 -31 -2
-31 4 0 6 15 13 33 15 65 8 107 7 107 -3z m-799 -43 c-5 -18 -7 -40 -5 -50 1
-9 -2 -19 -7 -23 -5 -3 -7 10 -5 28 2 18 4 46 5 61 0 16 5 26 10 23 5 -3 6
-21 2 -39z m176 1 c-3 -7 -5 -2 -5 12 0 14 2 19 5 13 2 -7 2 -19 0 -25z m629
-70 c-1 -13 -7 -22 -14 -20 -7 1 -12 -2 -12 -8 0 -5 5 -10 10 -10 6 0 10 -10
10 -23 0 -13 5 -28 12 -35 9 -9 9 -12 -1 -12 -10 0 -12 -20 -7 -92 3 -51 6
-288 6 -527 1 -343 -2 -436 -12 -443 -10 -6 -10 -8 0 -8 7 0 12 -14 12 -34 0
-19 -6 -37 -12 -40 -9 -4 -9 -8 -3 -11 13 -6 2 -144 -20 -259 -24 -122 -103
-290 -142 -304 -21 -6 -15 18 16 67 34 55 57 144 75 301 11 89 14 256 11 750
-1 349 -4 640 -6 645 -2 6 0 12 6 15 5 3 12 -8 15 -25 5 -31 30 -41 38 -16 3
8 0 11 -7 7 -11 -7 -14 3 -11 42 2 28 -35 31 -50 3 -7 -13 -10 -252 -10 -714
-1 -561 -3 -713 -15 -793 -16 -107 -41 -194 -56 -194 -11 0 -11 -2 1 40 35
119 40 237 40 946 0 615 2 703 15 708 22 8 18 29 -4 23 -21 -5 -34 13 -22 31
5 9 114 21 132 15 4 -1 6 -13 5 -25z m-645 -29 l-10 -24 0 26 c-1 14 2 29 6
33 12 12 14 -9 4 -35z m169 31 c12 19 31 -23 37 -83 3 -29 9 -59 13 -67 5 -8
8 -49 8 -90 0 -65 -2 -70 -9 -35 -4 22 -8 56 -9 75 -2 45 -34 143 -48 148 -7
2 -12 18 -11 35 0 18 3 26 6 18 4 -10 7 -11 13 -1z m320 0 c0 -5 -4 -10 -10
-10 -5 0 -10 5 -10 10 0 6 5 10 10 10 6 0 10 -4 10 -10z m937 -122 c-3 -8 -6
-5 -6 6 -1 11 2 17 5 13 3 -3 4 -12 1 -19z m-1653 -3 c3 -8 1 -15 -4 -15 -6 0
-10 7 -10 15 0 8 2 15 4 15 2 0 6 -7 10 -15z m726 -11 c0 -3 -9 -17 -19 -30
-18 -23 -18 -25 0 -60 16 -33 17 -39 4 -58 -18 -24 -19 -46 -4 -46 5 0 7 4 4
10 -3 5 -2 17 3 26 7 12 9 8 10 -17 1 -39 -4 -50 -22 -43 -22 8 -26 183 -5
208 14 15 29 21 29 10z m-161 -118 c1 -12 -4 -16 -15 -12 -9 3 -18 6 -20 6 -2
0 -4 26 -3 58 l0 57 19 -45 c10 -25 19 -53 19 -64z m171 80 c0 -2 -7 -6 -15
-10 -8 -3 -15 -1 -15 4 0 6 7 10 15 10 8 0 15 -2 15 -4z m176 -21 c-3 -8 -1
-15 4 -15 14 0 12 -44 -2 -58 -19 -19 -30 -14 -22 10 4 13 7 35 6 50 0 16 4
28 10 28 5 0 8 -7 4 -15z m-627 -105 c0 -29 -1 -32 -10 -17 -6 10 -8 21 -6 24
3 3 2 15 -3 28 -5 13 -6 26 -2 29 9 10 21 -24 21 -64z m1301 35 c0 -14 -4 -25
-10 -25 -5 0 -7 8 -3 18 5 14 4 15 -8 4 -10 -9 -11 -17 -3 -29 7 -12 5 -22
-10 -39 -15 -16 -23 -19 -28 -11 -5 8 -12 0 -19 -20 -6 -18 -15 -30 -21 -27
-5 3 -7 13 -4 21 3 8 1 11 -4 8 -6 -3 -10 -3 -10 2 0 11 20 40 20 30 0 -13 30
20 30 33 0 6 5 8 10 5 6 -3 10 -1 10 5 0 10 37 48 48 50 1 0 2 -11 2 -25z
m-1572 -1 c14 -15 14 -16 -3 -13 -10 2 -20 10 -23 17 -5 17 6 15 26 -4z m1461
-131 c0 -5 -4 -17 -9 -28 -8 -18 -9 -17 -9 8 -1 15 4 27 9 27 6 0 10 -3 9 -7z
m-79 -17 c0 -2 -7 -7 -16 -10 -8 -3 -12 -2 -9 4 6 10 25 14 25 6z m-46 -33
c-5 14 -1 16 17 14 13 -2 25 -9 27 -15 4 -12 -48 -85 -55 -78 -8 7 -40 -28
-35 -38 3 -5 0 -6 -6 -2 -6 3 -18 -1 -26 -10 -9 -8 -16 -11 -16 -6 0 5 3 12 8
16 4 4 7 13 7 19 1 7 7 11 13 9 10 -2 10 3 2 18 -6 11 -7 20 -2 20 6 0 12 9
15 20 3 11 11 19 19 17 7 -2 10 -2 6 0 -5 3 -8 12 -8 20 0 14 3 13 20 -2 18
-17 20 -17 14 -2z m-1247 -106 c7 -5 11 -12 8 -18 -6 -9 7 -13 32 -10 6 1 24
-11 40 -27 15 -16 41 -37 56 -47 21 -14 28 -24 24 -42 -3 -19 -2 -21 10 -12
11 9 12 9 7 -4 -6 -16 24 -63 75 -119 27 -30 47 -37 38 -14 -4 10 0 14 13 13
10 -1 16 -5 14 -9 -3 -5 0 -25 7 -45 9 -28 9 -38 0 -41 -6 -2 -11 -11 -11 -20
-1 -14 -3 -14 -12 3 -6 11 -20 29 -30 39 -15 17 -18 17 -18 3 0 -9 16 -32 37
-52 33 -32 35 -40 9 -36 -9 2 -4 -42 9 -72 5 -12 3 -17 -6 -15 -7 2 -15 -5
-17 -14 -2 -10 0 -18 5 -18 17 0 31 17 57 65 24 45 26 47 20 16 -14 -77 -78
-182 -102 -167 -6 3 -12 -1 -15 -9 -4 -9 -1 -12 9 -8 24 9 16 -4 -31 -49 -82
-79 -84 -80 -125 -51 -14 10 -33 16 -42 15 -17 -3 -19 21 -3 35 4 4 5 2 0 -6
-5 -9 -3 -12 6 -9 8 3 14 12 14 21 0 9 13 28 29 42 16 14 26 25 22 25 -4 0 7
14 23 32 21 23 27 35 18 40 -8 5 -6 8 6 8 15 0 17 6 13 38 -4 27 -3 30 2 12 8
-24 9 -24 15 10 3 19 4 60 2 90 -2 30 -4 61 -5 69 0 11 -4 11 -18 -2 -17 -16
-43 -25 -29 -10 4 3 2 13 -5 20 -9 11 -9 16 1 22 9 6 3 15 -22 30 -19 11 -40
21 -47 21 -7 0 -10 8 -7 19 3 12 -1 22 -9 25 -10 4 -13 17 -9 45 3 28 0 45
-13 61 -16 20 -21 21 -40 9 -12 -8 -23 -19 -23 -26 -3 -27 -4 -32 -10 -38 -4
-3 -6 23 -4 60 1 36 -1 67 -4 69 -6 4 -6 29 -2 71 1 6 7 1 13 -10 6 -11 17
-24 25 -28z m609 -4 c0 -16 3 -39 7 -53 8 -24 7 -24 -7 -6 -21 26 -20 8 0 -33
20 -40 13 -64 -9 -30 -17 25 -26 117 -13 137 12 21 23 13 22 -15z m748 -5
c-17 -35 -73 -92 -81 -84 -3 3 1 14 9 25 8 12 18 18 21 15 4 -4 11 5 16 20 6
14 15 26 21 26 6 0 9 4 6 9 -5 8 3 15 22 20 1 1 -5 -14 -14 -31z m-531 -55 c3
-44 1 -52 -14 -56 -14 -4 -19 0 -19 13 0 11 5 22 10 25 8 5 7 12 -2 23 -10 12
-10 16 0 19 6 3 9 10 5 16 -4 7 -8 18 -10 26 -1 12 0 12 12 0 8 -8 16 -37 18
-66z m490 -30 c-7 -3 -13 -15 -13 -28 0 -16 -7 -25 -25 -29 -14 -4 -25 -13
-25 -21 0 -18 17 -28 25 -15 3 5 1 10 -5 10 -6 0 -8 5 -4 12 5 8 11 5 17 -10
15 -34 -5 -50 -30 -25 -17 17 -23 18 -37 7 -18 -13 -14 -34 5 -34 6 0 7 5 4
10 -3 6 0 10 8 10 29 0 24 -35 -9 -68 l-33 -34 3 29 c5 39 5 40 16 23 8 -13
10 -12 10 3 0 24 -12 21 -42 -10 -32 -34 -71 -120 -58 -128 6 -4 10 -12 10
-18 0 -7 -7 -4 -15 7 -10 13 -11 25 -4 43 12 31 11 39 -1 27 -5 -5 -11 -23
-12 -39 -1 -17 -7 -34 -13 -38 -6 -5 -4 -7 5 -4 17 4 44 -49 33 -67 -9 -13 -4
-47 8 -62 9 -11 59 -106 59 -111 0 -2 -6 -3 -13 -3 -11 0 -71 112 -89 165 -6
19 -6 19 -7 1 -1 -28 21 -88 41 -110 9 -10 20 -31 23 -47 6 -25 9 -27 30 -19
15 6 27 6 30 0 4 -6 1 -10 -6 -10 -8 0 -8 -4 1 -15 7 -9 10 -19 6 -23 -4 -4
-15 3 -24 14 -13 15 -28 20 -58 20 -25 -1 -40 3 -38 9 3 6 -3 19 -12 30 -8 11
-13 14 -9 8 4 -8 0 -13 -9 -13 -9 0 -16 8 -17 18 -1 30 -7 71 -14 93 -6 17 -4
21 7 16 15 -5 19 26 5 39 -4 4 -7 18 -7 31 0 17 6 23 23 24 l22 2 -22 4 c-28
5 -30 20 -3 28 11 4 18 11 14 16 -3 5 2 33 10 63 15 51 40 82 102 124 17 12
17 12 1 8 -11 -4 -15 -2 -12 4 3 6 18 7 33 4 18 -4 23 -3 14 4 -11 7 -11 10 3
16 9 3 14 9 12 14 -3 4 1 16 9 27 8 10 14 14 14 8 0 -14 36 -5 51 13 7 8 15
12 18 8 3 -4 0 -9 -6 -11z m-232 -154 c-22 -20 -30 -33 -23 -38 13 -8 4 -51
-10 -51 -6 0 -8 -6 -5 -13 3 -8 1 -20 -4 -28 -6 -9 -9 8 -9 49 0 54 4 67 25
87 13 14 32 25 42 25 13 0 9 -7 -16 -31z m204 15 c13 -5 14 -9 4 -15 -10 -6
-10 -11 1 -24 15 -18 14 -19 -53 -67 -13 -9 -31 -31 -40 -50 -15 -29 -17 -30
-17 -9 0 13 15 38 35 58 35 35 41 44 28 42 -22 -4 -21 3 1 28 14 15 23 30 20
35 -6 10 -1 10 21 2z m-1161 -63 c4 -5 -3 -7 -14 -4 -23 6 -26 13 -6 13 8 0
17 -4 20 -9z m1056 -51 c-7 -16 -11 -30 -9 -32 1 -2 -3 -12 -9 -23 -19 -37 26
-187 78 -252 24 -31 25 -27 5 21 -20 48 -11 46 21 -6 15 -24 30 -45 33 -48 3
-3 14 -14 23 -25 16 -20 16 -21 -1 -32 -16 -10 -18 -9 -14 5 2 10 -5 26 -16
36 -12 11 -21 14 -21 9 0 -6 7 -13 15 -17 8 -3 15 -11 14 -18 0 -10 -2 -10 -6
0 -2 6 -11 12 -18 12 -20 0 -109 125 -137 193 -7 16 6 25 15 10 2 -5 1 -1 -2
7 -14 43 -12 129 5 161 10 19 17 41 16 49 -2 10 1 9 9 -3 8 -14 8 -26 -1 -47z
m-828 -38 c-5 -1 -6 -17 -4 -36 3 -23 -1 -35 -11 -39 -16 -6 -17 24 -2 76 5
21 10 25 16 15 5 -7 5 -14 1 -16z m-163 -46 c-1 -31 -1 -31 -8 4 -4 20 -11 42
-15 50 -4 8 0 6 8 -4 9 -11 15 -34 15 -50z m134 -59 c-7 -11 -23 2 -23 19 0
12 2 12 14 2 8 -7 12 -16 9 -21z m147 3 c0 -11 3 -19 8 -18 13 2 42 -14 42
-24 0 -12 -48 -2 -66 13 -13 11 -7 49 7 49 5 0 9 -9 9 -20z m348 -74 c-7 -8
-17 -12 -22 -9 -4 3 -2 9 5 14 22 13 31 11 17 -5z m132 -31 c0 -8 -7 -15 -16
-15 -14 0 -14 3 -4 15 7 8 14 15 16 15 2 0 4 -7 4 -15z m77 -15 c0 -16 -4 -27
-9 -24 -10 6 -11 38 -1 47 9 10 10 10 10 -23z m-677 -5 c-11 -13 -10 -14 5 -9
15 6 16 4 5 -15 -11 -22 -12 -22 -25 -4 -13 17 -14 16 -8 -6 5 -19 3 -23 -9
-18 -9 3 -21 0 -27 -6 -6 -6 -11 -8 -11 -5 0 11 73 88 78 83 3 -2 -1 -11 -8
-20z m470 21 c0 -2 -7 -9 -15 -16 -12 -10 -15 -10 -15 4 0 9 7 16 15 16 8 0
15 -2 15 -4z m110 -26 c12 -8 13 -13 2 -30 -8 -13 -9 -20 -1 -20 6 0 17 -7 25
-15 15 -15 15 -16 -5 -19 -19 -2 -34 -23 -22 -30 6 -4 11 -1 11 6 0 8 8 14 18
15 18 1 18 0 2 -51 -10 -28 -31 -79 -48 -111 -26 -50 -31 -56 -32 -33 0 15 5
30 10 33 12 8 13 95 1 95 -5 0 -7 9 -4 20 3 11 1 20 -3 20 -5 0 -10 -12 -11
-27 -2 -41 -51 -170 -57 -153 -2 8 -7 44 -11 80 -8 93 -11 109 -18 117 -14 13
-6 25 8 13 13 -11 14 -10 10 3 -7 18 14 35 24 19 4 -7 18 -13 31 -14 14 -2 30
-10 37 -18 7 -8 13 -10 13 -4 0 17 -22 34 -45 34 -31 0 -37 11 -18 32 17 19
43 24 43 8 0 -5 -4 -10 -10 -10 -5 0 -10 -5 -10 -12 0 -6 9 -3 21 8 11 10 16
20 10 22 -15 5 -14 32 2 32 6 0 19 -5 27 -10z m88 -23 c7 -8 7 -18 2 -27 -6
-8 -10 -26 -11 -40 0 -14 -7 -43 -15 -65 l-13 -40 4 35 c3 19 5 61 6 93 2 58
8 67 27 44z m-641 -19 c-3 -8 -6 -5 -6 6 -1 11 2 17 5 13 3 -3 4 -12 1 -19z
m859 -45 c-7 -7 -26 7 -26 19 0 6 6 6 15 -2 9 -7 13 -15 11 -17z m-449 -105
c-3 -8 -6 -5 -6 6 -1 11 2 17 5 13 3 -3 4 -12 1 -19z m99 -4 c-4 -9 -9 -15
-11 -12 -3 3 -3 13 1 22 4 9 9 15 11 12 3 -3 3 -13 -1 -22z m-86 -29 c0 -8 -7
-15 -15 -15 -26 0 -18 20 13 29 1 1 2 -6 2 -14z m-180 -15 c0 -5 -2 -10 -4
-10 -3 0 -8 5 -11 10 -3 6 -1 10 4 10 6 0 11 -4 11 -10z m252 -67 c-3 -46 -9
-66 -29 -89 -24 -29 -24 -29 -18 -4 3 14 9 43 12 65 3 22 12 49 20 61 7 11 10
24 6 29 -5 4 -3 6 2 3 6 -4 9 -33 7 -65z m-76 48 c-3 -4 0 -21 6 -38 14 -38 3
-111 -23 -142 -27 -33 -33 -21 -16 31 24 69 31 112 18 104 -6 -4 -11 -1 -11 8
0 22 11 46 22 46 5 0 7 -4 4 -9z m-186 -66 c-6 -56 -10 -58 -25 -9 -4 13 23
81 29 72 1 -1 0 -30 -4 -63z m314 28 c-2 -21 -7 -46 -10 -56 -3 -10 -1 -24 6
-32 7 -9 8 -15 0 -20 -9 -6 -30 33 -30 55 0 12 31 90 36 90 2 0 1 -17 -2 -37z
m-447 -80 c5 -14 -25 -12 -31 3 -3 7 2 11 12 10 9 -2 17 -7 19 -13z m356 -73
c-5 -19 -16 -25 -38 -20 -5 1 -5 -4 2 -11 9 -9 9 -14 0 -23 -13 -13 -77 -47
-77 -41 0 2 -3 10 -6 19 -4 11 4 17 28 24 18 4 33 12 34 18 2 24 18 45 30 40
8 -3 14 -1 14 4 0 6 4 10 9 10 5 0 7 -9 4 -20z m-63 -36 c0 -2 -12 -4 -26 -4
-14 0 -23 4 -20 9 6 8 46 4 46 -5z m65 -4 c3 -5 1 -10 -4 -10 -6 0 -11 5 -11
10 0 6 2 10 4 10 3 0 8 -4 11 -10z m-245 -26 c0 -2 -7 -4 -15 -4 -8 0 -15 4
-15 10 0 5 7 7 15 4 8 -4 15 -8 15 -10z m126 -41 c11 -15 15 -16 23 -4 5 7 14
10 21 6 9 -6 9 -10 -1 -16 -12 -8 -12 -11 1 -18 23 -16 3 -25 -26 -12 -20 9
-30 9 -41 0 -11 -9 -17 -9 -26 0 -9 10 -8 11 8 5 18 -7 18 -6 6 9 -11 14 -11
18 3 23 9 3 13 10 10 15 -10 16 9 9 22 -8z"/>
<path d="M1460 2660 c8 -5 20 -10 25 -10 6 0 3 5 -5 10 -8 5 -19 10 -25 10 -5
0 -3 -5 5 -10z"/>
<path d="M1450 2525 c0 -8 7 -15 16 -15 14 0 14 3 4 15 -7 8 -14 15 -16 15 -2
0 -4 -7 -4 -15z"/>
<path d="M531 2494 c0 -11 3 -14 6 -6 3 7 2 16 -1 19 -3 4 -6 -2 -5 -13z"/>
<path d="M752 1770 c0 -14 2 -19 5 -12 2 6 2 18 0 25 -3 6 -5 1 -5 -13z"/>
<path d="M1280 1926 c0 -22 3 -27 11 -19 8 8 8 16 0 30 -9 16 -10 14 -11 -11z"/>
<path d="M1313 1876 c1 -10 11 -24 22 -32 17 -11 24 -10 45 8 21 18 22 20 5
16 -11 -3 -27 -9 -36 -12 -10 -5 -19 1 -27 16 -9 18 -11 19 -9 4z"/>
<path d="M1280 1857 c0 -10 7 -25 15 -33 8 -9 15 -24 15 -34 0 -10 5 -22 10
-25 15 -9 7 25 -18 70 -13 25 -21 33 -22 22z"/>
<path d="M1310 1740 c0 -5 5 -10 10 -10 6 0 10 5 10 10 0 6 -4 10 -10 10 -5 0
-10 -4 -10 -10z"/>
<path d="M1290 1640 c0 -7 24 -20 36 -20 13 0 1 19 -16 23 -11 3 -20 2 -20 -3z"/>
<path d="M445 2229 c-10 -15 3 -25 16 -12 7 7 7 13 1 17 -6 3 -14 1 -17 -5z"/>
<path d="M565 2080 c-3 -5 -1 -10 4 -10 6 0 11 5 11 10 0 6 -2 10 -4 10 -3 0
-8 -4 -11 -10z"/>
<path d="M590 2065 c0 -8 4 -15 10 -15 5 0 7 7 4 15 -4 8 -8 15 -10 15 -2 0
-4 -7 -4 -15z"/>
<path d="M860 2071 c0 -5 4 -11 9 -13 4 -1 3 -31 -2 -65 -6 -35 -8 -66 -4 -69
12 -12 15 -1 22 72 6 60 5 72 -9 77 -9 4 -16 2 -16 -2z"/>
<path d="M964 1929 c-14 -23 -17 -138 -4 -154 16 -19 30 -19 30 1 0 8 -4 13
-9 9 -5 -3 -12 -1 -16 4 -3 5 2 14 12 19 16 9 16 11 0 27 -20 20 -21 27 -5 43
7 7 9 12 5 12 -4 0 -3 9 3 19 11 21 -3 40 -16 20z"/>
<path d="M1010 1883 c0 -13 5 -23 10 -23 13 0 13 11 0 30 -8 12 -10 11 -10 -7z"/>
<path d="M1035 1750 c-3 -5 -1 -10 4 -10 6 0 11 5 11 10 0 6 -2 10 -4 10 -3 0
-8 -4 -11 -10z"/>
<path d="M738 1633 c7 -3 16 -2 19 1 4 3 -2 6 -13 5 -11 0 -14 -3 -6 -6z"/>
<path d="M683 1583 c-7 -2 -13 -9 -13 -14 0 -4 6 -6 14 -3 8 3 42 -27 87 -76
40 -45 92 -91 114 -102 22 -12 66 -45 99 -75 32 -30 81 -69 109 -88 52 -35
107 -46 107 -22 0 8 -10 13 -22 13 -18 -1 -23 5 -24 29 -4 70 -55 208 -71 191
-2 -2 2 -44 9 -92 7 -49 14 -81 16 -71 5 25 22 10 22 -19 0 -23 -2 -24 -15
-10 -9 8 -22 13 -29 10 -8 -3 -17 -1 -21 5 -3 6 0 9 8 5 12 -4 12 5 1 58 -6
35 -15 85 -19 111 -4 32 -12 50 -23 54 -9 3 -27 15 -39 26 -32 29 -46 13 -38
-44 11 -76 -11 -60 -25 18 -12 71 -23 93 -46 93 -17 0 -20 -85 -3 -95 17 -11
23 3 9 20 -14 17 -8 31 9 20 18 -10 12 -46 -8 -52 -34 -9 -18 -41 33 -67 48
-24 73 -26 60 -4 -9 14 -11 78 -3 78 13 0 54 -39 42 -40 -7 0 -13 -4 -13 -10
0 -5 7 -7 15 -4 27 11 16 -11 -16 -30 l-30 -18 40 -35 c23 -19 41 -39 41 -45
0 -5 -21 8 -47 30 -27 21 -68 49 -93 62 -55 27 -200 167 -193 186 5 14 -19 18
-44 7z m360 -216 c-5 -8 -8 -7 -11 1 -2 7 -8 10 -13 6 -10 -6 -12 9 -2 19 10
10 34 -14 26 -26z"/>
<path d="M799 1573 c-8 -9 -9 -14 -3 -10 6 3 17 -6 25 -21 7 -15 15 -31 18
-36 2 -5 -1 -6 -7 -2 -7 4 -12 13 -12 21 0 8 -5 17 -12 21 -8 5 -9 2 -5 -9 10
-27 -6 -19 -29 14 -12 17 -24 27 -27 22 -3 -5 21 -35 54 -67 63 -62 65 -61 48
27 -12 59 -26 70 -50 40z"/>
<path d="M1211 1263 c11 -72 16 -79 72 -103 29 -13 64 -31 79 -41 29 -21 38
-23 38 -10 0 6 -18 21 -41 34 -22 14 -39 28 -38 33 1 5 -6 11 -17 13 -21 4
-65 50 -62 66 2 11 -24 55 -33 55 -3 0 -3 -21 2 -47z"/>
<path d="M1207 1149 c7 -7 15 -10 18 -7 3 3 -2 9 -12 12 -14 6 -15 5 -6 -5z"/>
<path d="M1246 1141 c-3 -5 3 -11 14 -14 11 -3 20 -13 20 -22 0 -12 -5 -15
-17 -10 -49 20 -54 19 -47 -11 3 -16 13 -39 20 -51 8 -12 14 -29 14 -36 0 -8
9 -24 20 -37 11 -13 20 -20 20 -15 0 4 7 2 15 -5 8 -6 19 -9 24 -5 13 7 2 66
-14 80 -17 15 -35 64 -27 69 5 3 21 -9 37 -26 l29 -31 14 22 c8 11 21 21 29
21 8 0 11 5 8 10 -3 6 -15 10 -26 10 -10 0 -19 6 -19 13 0 9 -2 9 -8 -1 -7
-10 -16 -7 -43 11 -54 36 -57 38 -63 28z m18 -83 c-3 -13 -3 -20 1 -16 9 9 45
-45 45 -67 0 -19 -14 -19 -30 0 -7 8 -9 15 -5 15 4 0 0 11 -9 25 -18 28 -21
65 -5 65 6 0 8 -9 3 -22z m106 12 c0 -5 -4 -10 -10 -10 -5 0 -10 5 -10 10 0 6
5 10 10 10 6 0 10 -4 10 -10z"/>
<path d="M1360 821 c0 -16 5 -33 10 -36 6 -4 10 6 10 24 0 16 -4 33 -10 36 -6
4 -10 -6 -10 -24z"/>
<path d="M1270 794 c0 -8 5 -12 10 -9 6 3 10 1 10 -4 0 -6 7 -11 15 -11 7 0
19 -8 24 -17 9 -16 10 -16 11 3 0 14 -11 26 -35 37 -31 15 -35 15 -35 1z"/>
<path d="M1290 743 c0 -13 5 -23 10 -23 13 0 13 11 0 30 -8 12 -10 11 -10 -7z"/>
<path d="M1318 667 c5 -18 6 -18 15 -2 8 14 11 15 19 4 8 -11 9 -11 5 1 -2 8
-13 15 -24 16 -16 1 -19 -4 -15 -19z"/>
<path d="M551 2233 c-1 -15 47 -48 56 -40 3 4 -6 11 -20 16 -14 5 -27 16 -30
23 -4 9 -6 10 -6 1z"/>
<path d="M1516 2145 c-3 -8 -1 -15 4 -15 6 0 10 7 10 15 0 8 -2 15 -4 15 -2 0
-6 -7 -10 -15z"/>
<path d="M1520 1339 c0 -5 5 -7 10 -4 6 3 10 8 10 11 0 2 -4 4 -10 4 -5 0 -10
-5 -10 -11z"/>
<path d="M1510 1160 c0 -5 5 -10 11 -10 5 0 7 5 4 10 -3 6 -8 10 -11 10 -2 0
-4 -4 -4 -10z"/>
<path d="M1520 1059 c0 -5 5 -7 10 -4 6 3 10 8 10 11 0 2 -4 4 -10 4 -5 0 -10
-5 -10 -11z"/>
<path d="M1526 637 c3 -10 9 -15 12 -12 3 3 0 11 -7 18 -10 9 -11 8 -5 -6z"/>
<path d="M834 1325 c2 -17 45 -60 52 -53 2 3 -5 15 -16 28 -11 13 -20 27 -20
32 0 4 -4 8 -9 8 -5 0 -8 -7 -7 -15z"/>
<path d="M927 1255 c-4 -8 -1 -17 5 -21 7 -4 8 -3 4 4 -4 7 -2 12 3 12 6 0 11
5 11 10 0 15 -17 12 -23 -5z"/>
<path d="M864 1199 c-3 -5 6 -9 19 -9 13 0 32 -9 42 -20 10 -11 13 -20 7 -20
-6 0 -14 5 -17 10 -8 12 -25 13 -25 2 0 -5 11 -14 25 -20 15 -7 25 -8 25 -2 0
6 5 10 11 10 6 0 9 -6 6 -14 -7 -16 51 -78 65 -70 14 9 10 18 -24 54 -17 19
-30 35 -29 35 1 0 -3 11 -9 25 -9 22 -10 23 -6 3 2 -13 2 -23 0 -23 -3 0 -15
10 -27 23 -23 23 -53 31 -63 16z"/>
<path d="M956 1072 c-3 -6 -1 -14 5 -17 15 -10 25 3 12 16 -7 7 -13 7 -17 1z"/>
<path d="M1040 1070 c0 -5 5 -10 11 -10 5 0 7 5 4 10 -3 6 -8 10 -11 10 -2 0
-4 -4 -4 -10z"/>
<path d="M1090 1058 c0 -7 5 -20 10 -28 8 -12 10 -11 10 7 0 12 -4 25 -10 28
-5 3 -10 0 -10 -7z"/>
<path d="M1023 1005 c-1 -27 4 -56 10 -64 9 -12 9 -13 0 -7 -7 4 -13 2 -13 -3
0 -6 5 -11 10 -11 6 0 13 -1 17 -2 11 -4 3 72 -11 107 -12 30 -13 29 -13 -20z"/>
<path d="M1071 954 c0 -11 3 -14 6 -6 3 7 2 16 -1 19 -3 4 -6 -2 -5 -13z"/>
<path d="M1066 914 c-3 -9 -6 -28 -6 -44 0 -16 -4 -30 -8 -32 -10 -4 -52 -72
-52 -84 1 -12 39 38 40 50 0 5 6 17 14 25 7 9 16 35 19 59 5 44 3 53 -7 26z"/>
<path d="M1016 879 c-8 -41 -36 -100 -45 -94 -4 2 -16 -10 -26 -28 -10 -18
-29 -42 -42 -54 -13 -11 -20 -24 -15 -27 6 -3 12 1 16 9 7 20 26 19 26 -1 0
-8 5 -12 10 -9 8 5 7 11 0 21 -9 10 -3 24 29 61 48 57 87 153 62 153 -5 0 -11
-14 -15 -31z"/>
<path d="M1044 776 c-23 -35 -34 -43 -50 -40 -21 6 -52 -21 -40 -34 4 -4 14 2
22 12 7 11 17 17 21 13 3 -4 -2 -17 -13 -29 -17 -19 -17 -21 -1 -15 9 4 17 2
17 -4 0 -6 5 -7 11 -3 8 5 8 9 -1 14 -9 5 -8 11 2 21 7 8 18 22 23 31 6 8 18
27 29 42 10 15 16 29 13 32 -2 3 -18 -15 -33 -40z"/>
<path d="M900 660 c-8 -5 -12 -12 -9 -15 4 -3 12 1 19 10 14 17 11 19 -10 5z"/>
<path d="M940 650 c-14 -11 -20 -20 -15 -20 6 0 21 9 35 20 14 11 21 20 15 20
-5 0 -21 -9 -35 -20z"/>
<path d="M2033 1246 c0 -8 6 -12 14 -9 7 3 10 9 7 14 -8 14 -21 11 -21 -5z"/>
<path d="M1957 1149 c-15 -11 -27 -28 -27 -37 0 -12 8 -8 32 15 37 38 33 53
-5 22z"/>
<path d="M1895 1089 c-9 -17 -15 -35 -13 -41 2 -6 11 8 20 31 19 48 15 54 -7
10z"/>
<path d="M1896 925 c4 -8 8 -15 10 -15 2 0 4 7 4 15 0 8 -4 15 -10 15 -5 0 -7
-7 -4 -15z"/>
<path d="M1850 828 c0 -12 3 -17 8 -12 4 5 11 12 15 15 5 3 2 9 -7 12 -12 5
-16 0 -16 -15z"/>
<path d="M1870 785 c0 -8 5 -15 10 -15 6 0 10 7 10 15 0 8 -4 15 -10 15 -5 0
-10 -7 -10 -15z"/>
<path d="M1890 756 c0 -2 7 -7 16 -10 8 -3 12 -2 9 4 -6 10 -25 14 -25 6z"/>
<path d="M2057 1114 c-3 -3 -3 -13 0 -21 5 -12 7 -12 14 -1 15 23 4 40 -14 22z"/>
<path d="M1641 664 c0 -11 3 -14 6 -6 3 7 2 16 -1 19 -3 4 -6 -2 -5 -13z"/>
<path d="M1642 620 c0 -14 2 -19 5 -12 2 6 2 18 0 25 -3 6 -5 1 -5 -13z"/>
<path d="M1335 2191 c-3 -5 -2 -12 3 -15 5 -3 9 1 9 9 0 17 -3 19 -12 6z"/>
<path d="M2231 2095 c1 -19 18 -51 18 -35 0 8 -4 22 -9 30 -5 8 -9 11 -9 5z"/>
<path d="M2129 2039 c-1 -8 0 -18 1 -24 4 -21 -12 -165 -19 -161 -9 6 -6 79 4
96 6 10 4 12 -9 7 -9 -4 -14 -3 -11 2 3 5 0 13 -6 17 -15 9 -7 -102 11 -164
20 -65 35 -46 38 48 2 46 8 90 14 97 6 8 7 24 2 40 -4 16 -8 31 -8 35 -2 14
-16 20 -17 7z m1 -213 c0 -3 -4 -8 -10 -11 -5 -3 -10 -1 -10 4 0 6 5 11 10 11
6 0 10 -2 10 -4z"/>
<path d="M2187 1990 c3 -11 9 -20 14 -20 11 0 11 3 3 24 -9 23 -23 20 -17 -4z"/>
<path d="M2050 1959 c0 -5 5 -7 10 -4 6 3 10 8 10 11 0 2 -4 4 -10 4 -5 0 -10
-5 -10 -11z"/>
<path d="M2200 1914 c0 -8 5 -12 10 -9 6 3 10 10 10 16 0 5 -4 9 -10 9 -5 0
-10 -7 -10 -16z"/>
<path d="M2040 1821 c0 -38 5 -73 10 -76 6 -3 11 -25 11 -48 1 -23 4 -55 8
-71 l6 -29 27 39 c34 49 58 106 58 136 -1 16 -6 9 -19 -23 -10 -25 -28 -56
-39 -67 -25 -25 -28 -21 -8 11 10 15 12 34 7 62 l-7 40 -8 -45 c-7 -37 -9 -41
-16 -25 -5 11 -9 50 -9 87 -1 37 -5 70 -11 73 -6 4 -10 -20 -10 -64z"/>
<path d="M1617 1856 c19 -25 36 -27 56 -7 10 11 7 13 -15 9 -19 -4 -28 -1 -28
8 0 8 -7 14 -15 14 -14 0 -13 -3 2 -24z"/>
<path d="M1661 1773 c1 -16 -2 -37 -6 -47 -8 -19 -8 -19 16 -1 24 18 24 21 11
47 -17 35 -23 35 -21 1z"/>
<path d="M2001 1684 c0 -11 3 -14 6 -6 3 7 2 16 -1 19 -3 4 -6 -2 -5 -13z"/>
<path d="M1606 1625 c-3 -8 -1 -15 4 -15 6 0 10 7 10 15 0 8 -2 15 -4 15 -2 0
-6 -7 -10 -15z"/>
<path d="M1631 1622 c0 -13 -8 -30 -16 -39 -9 -8 -13 -18 -10 -21 13 -13 36
26 32 54 -3 23 -4 24 -6 6z"/>
<path d="M1870 1365 c-7 -9 -10 -18 -7 -21 3 -3 10 4 17 15 13 25 8 27 -10 6z"/>
<path d="M1691 1309 c-18 -15 -24 -29 -23 -56 1 -20 4 -38 6 -40 8 -9 26 8 26
23 0 8 -4 13 -8 10 -4 -2 -8 7 -7 22 0 17 8 30 23 38 13 6 20 14 15 17 -4 3
-19 -4 -32 -14z"/>
<path d="M1703 1293 c-15 -5 -17 -23 -4 -23 5 0 11 7 15 15 3 8 4 15 3 14 -1
0 -8 -3 -14 -6z"/>
<path d="M1691 1035 c-13 -24 -21 -51 -18 -59 3 -8 1 -17 -6 -19 -9 -3 -9 -8
1 -18 10 -11 12 -10 14 7 1 10 2 26 4 34 1 8 2 21 3 28 1 7 5 11 10 8 9 -6 27
51 19 59 -2 2 -14 -16 -27 -40z"/>
</g></g></svg>
